<svg width="84" height="102" viewBox="0 0 84 102" fill="none" xmlns="http://www.w3.org/2000/svg">
<g id="Group">
<g id="Group_2">
<path id="Vector" d="M10.8597 69.8636C9.21063 69.8636 7.8029 69.6222 6.59628 69.1798C5.42987 68.6972 4.5048 68.0536 3.82104 67.1285C3.13729 66.2437 2.65464 65.1979 2.37309 64.0315C2.09155 62.8651 1.93066 61.4976 1.93066 59.8888V49.3107C1.93066 47.7019 2.09155 46.2942 2.37309 45.0875C2.65464 43.8809 3.13729 42.8754 3.82104 41.9503C4.5048 41.0655 5.42987 40.3817 6.59628 39.9393C7.76268 39.4969 9.17041 39.2555 10.8597 39.2555C12.4685 39.2555 13.836 39.4566 14.9622 39.8588C16.0884 40.261 16.9733 40.8644 17.6168 41.6688C18.2603 42.4732 18.7027 43.358 18.9843 44.3636C19.2658 45.3691 19.3865 46.5355 19.3865 47.8628V50.4771H12.9512V47.5008C12.9512 47.0181 12.9512 46.6964 12.9512 46.455C12.9512 46.2137 12.9109 45.892 12.8305 45.53C12.7501 45.168 12.6696 44.8864 12.5087 44.6853C12.3881 44.4842 12.1468 44.3233 11.8652 44.1625C11.5837 44.0016 11.2217 43.9211 10.8195 43.9211C10.4173 43.9211 10.0553 44.0016 9.77372 44.1625C9.49218 44.3233 9.29107 44.4842 9.13019 44.6853C8.96931 44.8864 8.84864 45.168 8.7682 45.53C8.68776 45.892 8.60732 46.2137 8.60732 46.5355C8.60732 46.817 8.5671 47.2192 8.5671 47.6617V61.5379C8.5671 62.7445 8.72798 63.6293 9.04975 64.2729C9.37152 64.9164 9.93461 65.198 10.8195 65.198C11.2217 65.198 11.5434 65.1175 11.825 64.9566C12.1065 64.7957 12.3076 64.6349 12.4685 64.4338C12.6294 64.2326 12.7098 63.9511 12.7903 63.5891C12.8707 63.2271 12.9109 62.9054 12.9109 62.6238C12.9109 62.3423 12.9109 61.9803 12.9109 61.5379V58.4006H19.3463V60.9748C19.3463 62.0205 19.2658 62.9858 19.105 63.8707C18.9441 64.7153 18.6625 65.5599 18.2603 66.2839C17.8581 67.0481 17.3352 67.6916 16.6917 68.1743C16.0482 68.6972 15.2438 69.0994 14.2382 69.3809C13.3132 69.7429 12.1468 69.8636 10.8597 69.8636Z" fill="#054C96"/>
</g>
<g id="Group_3">
<path id="Vector_2" d="M30.4873 65.0371C30.7688 65.198 31.0906 65.2382 31.4928 65.2382C31.895 65.2382 32.2168 65.1577 32.4983 65.0371C32.7799 64.8762 33.0212 64.7153 33.1419 64.5142C33.3027 64.3131 33.4234 64.0315 33.5038 63.7098C33.5843 63.388 33.6647 63.0663 33.6647 62.7847C33.7049 62.5032 33.7049 62.1412 33.7049 61.739V47.4606C33.7049 47.0584 33.7049 46.7366 33.6647 46.4148C33.6245 46.1333 33.5843 45.8115 33.5038 45.4898C33.4234 45.168 33.3027 44.8864 33.1419 44.6853C32.981 44.4842 32.7799 44.3233 32.4983 44.1625C32.2168 44.0418 31.8548 43.9614 31.4928 43.9614C31.0906 43.9614 30.7688 44.0418 30.4873 44.1625C30.2057 44.2831 30.0046 44.4842 29.8437 44.6451C29.6829 44.8462 29.5622 45.1278 29.4818 45.4495C29.4013 45.8115 29.3611 46.0931 29.3209 46.3746C29.2807 46.6562 29.2807 46.9779 29.2807 47.4204V61.6585C29.2807 62.0607 29.2807 62.4227 29.3209 62.7043C29.3209 62.9858 29.4013 63.3076 29.4818 63.6293C29.5622 63.9511 29.6829 64.2327 29.8437 64.4338C30.0046 64.7153 30.246 64.8762 30.4873 65.0371ZM31.533 69.8636C29.884 69.8636 28.4762 69.6625 27.3098 69.22C26.1434 68.7776 25.2184 68.1341 24.5346 67.2492C23.8508 66.3644 23.328 65.3588 23.0464 64.1924C22.7247 63.026 22.604 61.6585 22.604 60.0497V49.0694C22.604 47.4606 22.7649 46.0931 23.0464 44.9267C23.3682 43.7603 23.8508 42.7547 24.5346 41.8699C25.2184 41.0252 26.1434 40.3817 27.3098 39.9393C28.4762 39.4969 29.884 39.2957 31.533 39.2957C34.7507 39.2957 37.0433 40.1002 38.451 41.7492C39.8587 43.3983 40.5425 45.8115 40.5425 49.0694V60.0497C40.5425 63.2674 39.8587 65.7208 38.451 67.3699C37.0433 69.0592 34.7507 69.8636 31.533 69.8636Z" fill="#054C96"/>
</g>
<g id="Group_4">
<path id="Vector_3" d="M51.0404 52.3675H52.7296C54.0569 52.3675 55.0222 52.0055 55.5451 51.3218C56.1082 50.638 56.3495 49.5923 56.3495 48.1845C56.3495 46.817 56.1082 45.7713 55.6255 45.1277C55.1429 44.444 54.258 44.1222 53.0514 44.1222H51.0404V52.3675ZM44.4844 69.4613V39.7382H52.5688C53.8156 39.7382 54.9418 39.8186 55.9071 39.9393C56.8724 40.1001 57.7975 40.3415 58.6421 40.7035C59.4867 41.0654 60.2107 41.5481 60.7336 42.1112C61.2967 42.7145 61.6989 43.4385 62.0206 44.3636C62.3424 45.2886 62.5033 46.3746 62.5033 47.5812C62.5033 49.5118 62.2218 51.0804 61.6989 52.2871C61.176 53.4937 60.2107 54.3785 58.8432 55.0623L62.9457 69.4613H56.1484L52.8905 56.1483H51.0404V69.4613H44.4844Z" fill="#054C96"/>
</g>
<g id="Group_5">
<path id="Vector_4" d="M66.4045 69.4613V39.7382H79.7579V44.2429H72.9605V51.5631H78.149V56.1483H72.9605V65.0371H79.8383V69.4613H66.4045Z" fill="#054C96"/>
</g>
<g id="Group_6">
<path id="Vector_5" d="M2.57413 84.9062C2.17192 84.9062 1.85016 84.8659 1.52839 84.7453C1.24685 84.6648 0.9653 84.5039 0.804416 84.3431C0.603312 84.1822 0.442429 83.9409 0.321767 83.6995C0.201104 83.418 0.120662 83.1767 0.0804416 82.8549C0.0402208 82.5733 0 82.2114 0 81.8494V78.6719C0 78.2697 0.0402208 77.948 0.0804416 77.6262C0.120662 77.3044 0.241325 77.0229 0.361987 76.7815C0.48265 76.5402 0.643533 76.2989 0.844637 76.138C1.04574 75.9771 1.28707 75.8565 1.56861 75.7358C1.85016 75.6554 2.21215 75.5749 2.61435 75.5749C3.05678 75.5749 3.45899 75.6151 3.78076 75.7358C4.10252 75.8565 4.34385 76.0174 4.54495 76.2587C4.74606 76.5 4.86672 76.7816 4.94716 77.0631C5.0276 77.3849 5.06782 77.7468 5.06782 78.1491V78.9132H3.49921V78.1491C3.49921 77.7066 3.45899 77.3849 3.41877 77.224C3.33833 76.9022 3.097 76.7413 2.73502 76.7413H2.65457C2.53391 76.7413 2.41325 76.7413 2.29259 76.7815C2.17192 76.8218 2.09148 76.862 2.05126 76.9424C2.01104 77.0229 1.9306 77.1033 1.89038 77.1838C1.85016 77.2642 1.80994 77.3849 1.80994 77.5055C1.76972 77.6262 1.76972 77.7468 1.76972 77.8675C1.76972 77.9882 1.76972 78.1088 1.76972 78.2697V82.0907C1.76972 82.6136 1.85016 83.0158 1.97082 83.2169C2.09148 83.4582 2.33281 83.5386 2.69479 83.5386C2.81546 83.5386 2.8959 83.5386 3.01656 83.4984C3.097 83.4582 3.17744 83.4582 3.25789 83.3778C3.33833 83.3375 3.37855 83.2973 3.41877 83.2169C3.45899 83.1364 3.49921 83.056 3.49921 83.0158C3.49921 82.9353 3.53943 82.8549 3.53943 82.7342C3.53943 82.6136 3.53943 82.5331 3.53943 82.4125C3.53943 82.332 3.53943 82.2114 3.53943 82.0505V81.2461H5.10804V82.0103C5.10804 82.332 5.06782 82.6538 5.0276 82.9353C4.98738 83.2169 4.90694 83.4582 4.78628 83.6995C4.66561 83.9409 4.54495 84.142 4.34385 84.3028C4.18297 84.4637 3.94164 84.5844 3.66009 84.6648C3.29811 84.8659 2.93612 84.9062 2.57413 84.9062Z" fill="#054C96"/>
</g>
<g id="Group_7">
<path id="Vector_6" d="M8.20513 83.6191C8.32579 83.6593 8.44645 83.6995 8.60733 83.6995C8.76822 83.6995 8.88888 83.6593 9.00954 83.6191C9.13021 83.5789 9.21065 83.4984 9.29109 83.418C9.37153 83.3375 9.41175 83.2571 9.45197 83.1364C9.49219 83.0158 9.53241 82.8951 9.53241 82.7744C9.53241 82.6538 9.53241 82.4929 9.53241 82.332V78.2295C9.53241 78.0284 9.53241 77.8273 9.49219 77.6664C9.49219 77.5055 9.41175 77.3849 9.37153 77.2642C9.29109 77.1435 9.21065 77.0229 9.08998 76.9826C8.96932 76.9022 8.80844 76.9022 8.60733 76.9022C8.40623 76.9022 8.24535 76.9424 8.12469 76.9826C8.00402 77.0631 7.88336 77.1435 7.84314 77.2642C7.7627 77.3849 7.72248 77.5457 7.72248 77.6664C7.68226 77.8273 7.68226 77.9882 7.68226 78.2295V82.332C7.68226 82.4929 7.68226 82.6538 7.72248 82.7744C7.72248 82.8951 7.7627 83.0158 7.80292 83.1364C7.84314 83.2571 7.88336 83.3778 7.9638 83.418C8.00402 83.4984 8.12469 83.5789 8.20513 83.6191ZM8.64756 84.9062C7.72248 84.9062 7.03872 84.6648 6.63652 84.142C6.23431 83.6191 6.0332 82.8951 6.0332 81.9298V78.5915C6.0332 78.1088 6.07342 77.7066 6.15387 77.3446C6.23431 76.9827 6.39519 76.7011 6.59629 76.4196C6.7974 76.1782 7.07894 75.9771 7.40071 75.8565C7.72248 75.7358 8.16491 75.6554 8.60733 75.6554C9.53241 75.6554 10.2162 75.8967 10.6184 76.4196C11.0206 76.9022 11.2217 77.6664 11.2217 78.6317V81.97C11.2217 82.4527 11.1815 82.8549 11.101 83.2169C11.0206 83.5789 10.8597 83.9006 10.6586 84.142C10.4575 84.4235 10.1759 84.6246 9.85418 84.7453C9.53241 84.8257 9.08998 84.9062 8.64756 84.9062Z" fill="#054C96"/>
</g>
<g id="Group_8">
<path id="Vector_7" d="M12.4685 84.7855V75.7358H13.5947L15.8068 80.884V75.7358H17.1743V84.7855H16.0884L13.8762 79.3959V84.7855H12.4685Z" fill="#054C96"/>
</g>
<g id="Group_9">
<path id="Vector_8" d="M20.8343 84.9062C19.2254 84.9062 18.3808 83.9811 18.3406 82.1309L19.7885 81.8091C19.8287 83.0158 20.1505 83.6191 20.8343 83.6191C21.0756 83.6191 21.2767 83.5386 21.3974 83.3778C21.518 83.2169 21.5985 83.0158 21.5985 82.7745C21.5985 82.5331 21.5582 82.2918 21.4778 82.0907C21.3974 81.8896 21.2767 81.6885 21.156 81.5678C21.0354 81.4472 20.8745 81.2863 20.6332 81.0852L19.4265 80.0394C19.0646 79.7177 18.8232 79.3959 18.6623 79.0741C18.5015 78.7524 18.421 78.3502 18.421 77.8273C18.421 77.1033 18.6221 76.5804 19.0243 76.1782C19.4265 75.776 19.9896 75.5749 20.7136 75.5749C21.0354 75.5749 21.3571 75.6151 21.5985 75.6956C21.8398 75.776 22.0811 75.8967 22.242 76.0576C22.4029 76.2185 22.5638 76.3793 22.6442 76.5804C22.7649 76.7815 22.8453 77.0229 22.8855 77.2642C22.9258 77.5055 22.966 77.7468 23.0062 78.0284L21.5985 78.3099C21.5985 78.1088 21.5582 77.9882 21.5582 77.8273C21.5582 77.7066 21.518 77.5457 21.4778 77.4251C21.4376 77.3044 21.3974 77.1838 21.3169 77.1033C21.2365 77.0229 21.156 76.9424 21.0756 76.9022C20.9549 76.862 20.8343 76.8218 20.7136 76.8218C20.4723 76.8218 20.2712 76.9022 20.1505 77.0631C20.0299 77.224 19.9494 77.4251 19.9494 77.6664C19.9494 77.948 19.9896 78.1893 20.1103 78.3904C20.231 78.5915 20.3918 78.7926 20.6332 78.9937L21.7996 80.0394C22.0007 80.2003 22.1616 80.4014 22.3224 80.5623C22.4833 80.7232 22.604 80.9243 22.7246 81.1254C22.8453 81.3265 22.966 81.5678 23.0464 81.8494C23.1269 82.0907 23.1269 82.3722 23.1269 82.6538C23.1269 83.2973 22.9258 83.8604 22.5235 84.2626C22.0409 84.705 21.518 84.9062 20.8343 84.9062Z" fill="#054C96"/>
</g>
<g id="Group_10">
<path id="Vector_9" d="M24.052 84.7855V75.7358H27.873V76.9022H25.7011V79.4763H27.4305V80.6829H25.7011V83.6593H27.873V84.7855H24.052Z" fill="#054C96"/>
</g>
<g id="Group_11">
<path id="Vector_10" d="M28.2751 84.9866V83.8202C28.7578 83.8202 29.0796 83.7397 29.2404 83.6191C29.4013 83.4582 29.4818 83.1766 29.4818 82.694V75.7358H31.1308V82.7342C31.1308 83.1364 31.0906 83.4582 31.0504 83.7397C30.9699 84.0213 30.8895 84.2626 30.7286 84.4235C30.5677 84.6246 30.3666 84.7452 30.0851 84.8659C29.8035 84.9463 29.4818 84.9866 29.0796 84.9866H28.2751Z" fill="#054C96"/>
</g>
<g id="Group_12">
<path id="Vector_11" d="M34.5498 83.6191C34.6705 83.6593 34.7911 83.6995 34.952 83.6995C35.1129 83.6995 35.2335 83.6593 35.3542 83.6191C35.4749 83.5789 35.5553 83.4984 35.6358 83.418C35.7162 83.3375 35.7564 83.2571 35.7966 83.1364C35.8369 83.0158 35.8771 82.8951 35.8771 82.7744C35.8771 82.6538 35.8771 82.4929 35.8771 82.332V78.2295C35.8771 78.0284 35.8771 77.8273 35.8369 77.6664C35.7966 77.5055 35.7564 77.3849 35.7162 77.2642C35.6358 77.1435 35.5553 77.0229 35.4346 76.9826C35.314 76.9022 35.1531 76.9022 34.952 76.9022C34.7509 76.9022 34.59 76.9424 34.4693 76.9826C34.3487 77.0631 34.228 77.1435 34.1878 77.2642C34.1074 77.3849 34.0671 77.5457 34.0671 77.6664C34.0671 77.8273 34.0269 77.9882 34.0269 78.2295V82.332C34.0269 82.4929 34.0269 82.6538 34.0671 82.7744C34.0671 82.8951 34.1074 83.0158 34.1476 83.1364C34.1878 83.2571 34.228 83.3778 34.3085 83.418C34.3487 83.4984 34.4291 83.5789 34.5498 83.6191ZM34.952 84.9062C34.0269 84.9062 33.3432 84.6648 32.941 84.142C32.5388 83.6191 32.3376 82.8951 32.3376 81.9298V78.5915C32.3376 78.1088 32.3779 77.7066 32.4583 77.3446C32.5387 76.9827 32.6996 76.7011 32.9007 76.4196C33.1018 76.1782 33.3834 75.9771 33.7052 75.8565C34.0269 75.7358 34.4694 75.6554 34.9118 75.6554C35.8369 75.6554 36.5206 75.8967 36.9228 76.4196C37.325 76.9022 37.5261 77.6664 37.5261 78.6317V81.97C37.5261 82.4527 37.4859 82.8549 37.4055 83.2169C37.325 83.5789 37.1641 83.9006 36.963 84.142C36.7619 84.4235 36.4804 84.6246 36.1586 84.7453C35.8369 84.8257 35.4346 84.9062 34.952 84.9062Z" fill="#054C96"/>
</g>
<g id="Group_13">
<path id="Vector_12" d="M43.1571 79.597H43.5593C44.042 79.597 44.404 79.4763 44.6051 79.2752C44.8062 79.0741 44.9268 78.7121 44.9268 78.1892C44.9268 77.7066 44.8464 77.3446 44.6453 77.1435C44.4844 76.9424 44.1224 76.8217 43.68 76.8217H43.1973L43.1571 79.597ZM41.5081 84.7855V75.7358H43.5995C44.0822 75.7358 44.4844 75.776 44.8464 75.8564C45.1682 75.9369 45.4899 76.0575 45.7312 76.2587C45.9726 76.4598 46.1737 76.7011 46.2943 77.0228C46.415 77.3446 46.4954 77.7066 46.4954 78.1892C46.4954 78.7523 46.415 79.235 46.2541 79.597C46.0932 79.959 45.8117 80.2405 45.4095 80.4014L46.6563 84.8659H45.0073L43.9213 80.7232H43.1973V84.8659H41.5081V84.7855Z" fill="#054C96"/>
</g>
<g id="Group_14">
<path id="Vector_13" d="M47.7019 84.7855V75.7358H51.5229V76.9022H49.3912V79.4763H51.0805V80.6829H49.3912V83.6593H51.5631V84.7855H47.7019Z" fill="#054C96"/>
</g>
<g id="Group_15">
<path id="Vector_14" d="M54.7807 84.9061C53.936 84.9061 53.2925 84.6246 52.9305 84.1017C52.5685 83.5788 52.3674 82.7744 52.3674 81.7689V78.8328C52.3674 78.3099 52.4077 77.8675 52.4881 77.4653C52.5685 77.1033 52.6892 76.7413 52.8903 76.4598C53.0914 76.1782 53.3327 75.9771 53.6947 75.8162C54.0165 75.6553 54.4589 75.6151 54.9416 75.6151C55.8264 75.6151 56.47 75.8162 56.8722 76.2586C57.2744 76.7011 57.4755 77.3848 57.4755 78.2697V78.7121H55.9069V78.2295C55.9069 78.0284 55.9069 77.8675 55.9069 77.7468C55.9069 77.6262 55.8666 77.5055 55.8264 77.3446C55.7862 77.2239 55.746 77.1033 55.6655 77.0631C55.5851 76.9826 55.5047 76.9424 55.384 76.9022C55.2633 76.862 55.1427 76.8217 54.9818 76.8217C54.8611 76.8217 54.7405 76.8217 54.66 76.862C54.5796 76.9022 54.4991 76.9424 54.4187 76.9826C54.3383 77.0228 54.298 77.1033 54.2578 77.1837C54.2176 77.2642 54.1774 77.3446 54.1372 77.425C54.0969 77.5055 54.0969 77.5859 54.0969 77.7468C54.0969 77.8675 54.0969 77.9881 54.0567 78.0686C54.0567 78.149 54.0567 78.2697 54.0567 78.4306V82.0907C54.0567 82.6538 54.1371 83.056 54.2578 83.2973C54.3785 83.5386 54.66 83.6995 55.022 83.6995C55.2231 83.6995 55.384 83.6593 55.5047 83.5788C55.6253 83.4984 55.746 83.3777 55.8264 83.2571C55.9069 83.0962 55.9471 82.9353 55.9873 82.7342C56.0275 82.5331 56.0275 82.2918 56.0275 82.0102V81.246H55.0622V80.2003H57.5157V84.8257H56.4297L56.3091 83.9006C56.0275 84.5844 55.5047 84.9061 54.7807 84.9061Z" fill="#054C96"/>
</g>
<g id="Group_16">
<path id="Vector_15" d="M60.4518 75.7358H58.8027V84.8257H60.4518V75.7358Z" fill="#054C96"/>
</g>
<g id="Group_17">
<path id="Vector_16" d="M63.8706 83.6191C63.9913 83.6593 64.1119 83.6995 64.2728 83.6995C64.4337 83.6995 64.5543 83.6593 64.675 83.6191C64.7957 83.5789 64.8761 83.4984 64.9566 83.418C65.037 83.3375 65.0772 83.2571 65.1174 83.1364C65.1577 83.0158 65.1979 82.8951 65.1979 82.7744C65.1979 82.6538 65.1979 82.4929 65.1979 82.332V78.2295C65.1979 78.0284 65.1979 77.8273 65.1577 77.6664C65.1577 77.5055 65.0772 77.3849 65.037 77.2642C64.9566 77.1435 64.8761 77.0229 64.7554 76.9826C64.6348 76.9022 64.4739 76.9022 64.2728 76.9022C64.0717 76.9022 63.9108 76.9424 63.7902 76.9826C63.6695 77.0631 63.589 77.1435 63.5086 77.2642C63.4282 77.3849 63.3879 77.5457 63.3879 77.6664C63.3477 77.8273 63.3477 77.9882 63.3477 78.2295V82.332C63.3477 82.4929 63.3477 82.6538 63.3477 82.7744C63.3477 82.8951 63.3879 83.0158 63.4282 83.1364C63.4684 83.2571 63.5086 83.3778 63.589 83.418C63.6695 83.4984 63.7499 83.5789 63.8706 83.6191ZM64.2728 84.9062C63.3477 84.9062 62.664 84.6648 62.2618 84.142C61.8596 83.6191 61.6584 82.8951 61.6584 81.9298V78.5915C61.6584 78.1088 61.6987 77.7066 61.7791 77.3446C61.8596 76.9827 62.0204 76.7011 62.2215 76.4196C62.4226 76.1782 62.7042 75.9771 63.026 75.8565C63.3477 75.7358 63.7901 75.6554 64.2326 75.6554C65.1577 75.6554 65.8414 75.8967 66.2436 76.4196C66.6458 76.9022 66.8469 77.6664 66.8469 78.6317V81.97C66.8469 82.4527 66.8067 82.8549 66.7263 83.2169C66.6458 83.5789 66.4849 83.9006 66.2838 84.142C66.0827 84.4235 65.8012 84.6246 65.4794 84.7453C65.1577 84.8257 64.7555 84.9062 64.2728 84.9062Z" fill="#054C96"/>
</g>
<g id="Group_18">
<path id="Vector_17" d="M68.094 84.7855V75.7358H69.2604L71.4725 80.884V75.7358H72.8401V84.7855H71.7541L69.5017 79.3959V84.7855H68.094Z" fill="#054C96"/>
</g>
<g id="Group_19">
<path id="Vector_18" d="M75.8163 81.608H77.023L76.4196 77.8675L75.8163 81.608ZM73.7249 84.7855L75.575 75.7358H77.3045L79.1547 84.7855H77.6263L77.2643 82.694H75.6555L75.2935 84.7855H73.7249Z" fill="#054C96"/>
</g>
<g id="Group_20">
<path id="Vector_19" d="M79.9993 84.7855V75.7358H81.6483V83.6593H83.8202V84.7855H79.9993Z" fill="#054C96"/>
</g>
<g id="Group_21">
<path id="Vector_20" d="M2.65462 94.4787C2.17197 94.4787 1.80998 94.3178 1.60888 94.0363C1.40777 93.7145 1.28711 93.2721 1.28711 92.709V91.0197C1.28711 90.7382 1.32733 90.4566 1.36755 90.2555C1.40777 90.0544 1.48821 89.8533 1.60888 89.6924C1.72954 89.5315 1.89042 89.4109 2.0513 89.3304C2.25241 89.25 2.49373 89.2098 2.77528 89.2098C3.29815 89.2098 3.66014 89.3304 3.90146 89.5718C4.14279 89.8131 4.22323 90.2153 4.22323 90.7382V90.9795H3.25793V90.6979C3.25793 90.5773 3.25793 90.4968 3.25793 90.4164C3.25793 90.336 3.25793 90.2555 3.21771 90.2153C3.17749 90.1349 3.17749 90.0946 3.13727 90.0544C3.09705 90.0142 3.05683 89.974 2.97638 89.974C2.89594 89.9337 2.8155 89.9338 2.73506 89.9338C2.65462 89.9338 2.6144 89.9337 2.53395 89.974C2.49373 90.0142 2.41329 90.0142 2.37307 90.0544C2.33285 90.0946 2.29263 90.1349 2.29263 90.1751C2.25241 90.2153 2.25241 90.2555 2.25241 90.2957C2.25241 90.336 2.21219 90.4164 2.21219 90.4566C2.21219 90.5371 2.21219 90.5773 2.21219 90.6577C2.21219 90.6979 2.21219 90.7784 2.21219 90.8588V92.9503C2.21219 93.2721 2.25241 93.5134 2.33285 93.6341C2.41329 93.795 2.57418 93.8352 2.77528 93.8352C2.89594 93.8352 2.97638 93.795 3.05683 93.7547C3.13727 93.7145 3.17749 93.6341 3.21771 93.5536C3.25793 93.4732 3.29815 93.3525 3.29815 93.2721C3.29815 93.1514 3.33837 93.0308 3.33837 92.8699V92.4274H2.77528V91.8241H4.18301V94.4787H3.5797L3.49925 93.9558C3.37859 94.2776 3.05683 94.4787 2.65462 94.4787Z" fill="#054C96"/>
</g>
<g id="Group_22">
<path id="Vector_21" d="M5.99282 93.8754C6.07326 93.8754 6.11348 93.8754 6.1537 93.8352C6.19392 93.7949 6.23414 93.7547 6.23414 93.6743C6.27437 93.5938 6.27437 93.5536 6.27437 93.4732C6.27437 93.433 6.27437 93.3525 6.27437 93.2318V91.9046C6.27437 91.8241 6.27437 91.7437 6.27437 91.7035C6.27437 91.6632 6.27437 91.5828 6.27437 91.5426C6.27437 91.5024 6.23414 91.4219 6.23414 91.3817C6.19392 91.3415 6.19392 91.3012 6.1537 91.3012C6.11348 91.261 6.07326 91.261 5.99282 91.261C5.91238 91.261 5.87216 91.261 5.83194 91.3012C5.79172 91.3415 5.75149 91.3817 5.75149 91.4621C5.75149 91.5426 5.71127 91.5828 5.71127 91.6632C5.71127 91.7437 5.71127 91.8241 5.71127 91.9046V93.2318C5.71127 93.3123 5.71127 93.3927 5.71127 93.433C5.71127 93.4732 5.71127 93.5536 5.71127 93.5938C5.71127 93.6341 5.75149 93.7145 5.75149 93.7547C5.79172 93.7949 5.79172 93.8352 5.83194 93.8352C5.87216 93.8754 5.91238 93.8754 5.99282 93.8754ZM5.99282 94.4787C5.59061 94.4787 5.30907 94.358 5.10796 94.1569C4.90686 93.9156 4.82642 93.5938 4.82642 93.1916V91.985C4.82642 91.5828 4.94708 91.261 5.10796 91.0197C5.30907 90.7784 5.59061 90.6979 5.99282 90.6979C6.39503 90.6979 6.67657 90.8186 6.87768 91.0197C7.07878 91.261 7.15922 91.5828 7.15922 91.985V93.1916C7.15922 93.5938 7.07878 93.9156 6.87768 94.1569C6.67657 94.358 6.39503 94.4787 5.99282 94.4787Z" fill="#054C96"/>
</g>
<g id="Group_23">
<path id="Vector_22" d="M9.04958 93.8754C9.13002 93.8754 9.17024 93.8351 9.21046 93.8351C9.25068 93.7949 9.2909 93.7547 9.2909 93.6743C9.33113 93.5938 9.33113 93.5134 9.33113 93.4732C9.33113 93.3927 9.33113 93.3123 9.33113 93.1916V91.9045C9.33113 91.8241 9.33113 91.7437 9.33113 91.6632C9.33113 91.5828 9.2909 91.5426 9.2909 91.4621C9.25068 91.3817 9.25068 91.3415 9.17024 91.3415C9.13002 91.3012 9.0898 91.3012 9.00936 91.3012C8.8887 91.3012 8.76803 91.3415 8.64737 91.4621V93.7949C8.76803 93.8351 8.92892 93.8754 9.04958 93.8754ZM9.37135 94.4787C9.13002 94.4787 8.8887 94.358 8.68759 94.1569V94.4385H7.80273V89.25H8.68759V91.0197C8.92892 90.7784 9.17024 90.6577 9.45179 90.6979C9.57245 90.6979 9.69311 90.7381 9.81378 90.7784C9.93444 90.8186 9.97466 90.899 10.0551 90.9795C10.0953 91.0599 10.1758 91.1806 10.1758 91.3012C10.216 91.4219 10.2562 91.5426 10.2562 91.623C10.2562 91.7437 10.2562 91.8241 10.2562 91.9448V93.1514C10.2562 93.3525 10.2562 93.5134 10.216 93.6743C10.1758 93.8351 10.1355 93.9558 10.0551 94.1167C9.97466 94.2374 9.89422 94.358 9.77355 94.3982C9.65289 94.4385 9.53223 94.4787 9.37135 94.4787Z" fill="#054C96"/>
</g>
<g id="Group_24">
<path id="Vector_23" d="M10.8596 94.4385H11.7445V90.7381H10.8596V94.4385ZM10.8596 90.1348H11.7445V89.4109H10.8596V90.1348Z" fill="#054C96"/>
</g>
<g id="Group_25">
<path id="Vector_24" d="M13.2328 92.1861H13.8763V91.8241C13.8763 91.623 13.8361 91.5024 13.7958 91.4219C13.7556 91.3415 13.6752 91.3012 13.5545 91.3012C13.4339 91.3012 13.3534 91.3415 13.3132 91.4219C13.273 91.5024 13.2328 91.6632 13.2328 91.9046V92.1861ZM13.5545 94.4787C13.1523 94.4787 12.8305 94.358 12.6294 94.1167C12.4283 93.8754 12.3479 93.5536 12.3479 93.071V92.0252C12.3479 91.5828 12.4283 91.2208 12.6294 90.9795C12.8305 90.7382 13.1121 90.6175 13.5545 90.6175C13.7958 90.6175 13.9567 90.6577 14.1176 90.6979C14.2785 90.7784 14.3992 90.8588 14.4796 90.9795C14.56 91.1001 14.6003 91.261 14.6405 91.4219C14.6807 91.5828 14.6807 91.8241 14.6807 92.0654V92.5481H13.1925V93.1112C13.1925 93.1916 13.1925 93.2318 13.1925 93.3123C13.1925 93.3525 13.1925 93.3927 13.1925 93.4732C13.1925 93.5536 13.1925 93.5938 13.2328 93.5938C13.2328 93.6341 13.273 93.6743 13.273 93.7145C13.273 93.7547 13.3132 93.7547 13.3534 93.7949C13.3936 93.7949 13.4339 93.8352 13.4741 93.8352C13.5947 93.8352 13.6752 93.7949 13.7154 93.7145C13.7556 93.6341 13.7958 93.5134 13.7958 93.3525V93.1514H14.6405V93.3123C14.6405 93.7145 14.56 93.996 14.3589 94.1971C14.2383 94.3982 13.9567 94.4787 13.5545 94.4787Z" fill="#054C96"/>
</g>
<g id="Group_26">
<path id="Vector_25" d="M15.3242 94.4385V90.7382H16.2091V91.3013C16.3297 91.06 16.4504 90.9393 16.5711 90.8186C16.6917 90.7382 16.8124 90.6577 16.9733 90.6577C17.0135 90.6577 17.0537 90.6577 17.0939 90.6577V91.5426C17.0135 91.5024 16.8928 91.5024 16.7722 91.5024C16.6515 91.5024 16.5308 91.5426 16.4504 91.5828C16.37 91.623 16.2493 91.7437 16.1689 91.8644V94.3983L15.3242 94.4385Z" fill="#054C96"/>
</g>
<g id="Group_27">
<path id="Vector_26" d="M17.5361 94.4385V90.7382H18.421V91.1001C18.7025 90.8186 19.0243 90.6979 19.3058 90.6979C19.507 90.6979 19.6678 90.7784 19.7483 90.9393C19.8287 91.1001 19.9092 91.3012 19.9092 91.5024V94.4787H19.0243V91.7035C19.0243 91.5828 19.0243 91.5024 18.9841 91.4621C18.9439 91.4219 18.9036 91.3817 18.783 91.3817C18.6623 91.3817 18.5417 91.4219 18.3808 91.5426V94.4787H17.5361V94.4385Z" fill="#054C96"/>
</g>
<g id="Group_28">
<path id="Vector_27" d="M21.7191 93.8754C21.7996 93.8754 21.8398 93.8754 21.88 93.8352C21.9202 93.7949 21.9605 93.7547 21.9605 93.6743C21.9605 93.5938 22.0007 93.5536 22.0007 93.4732C22.0007 93.433 22.0007 93.3525 22.0007 93.2318V91.9046C22.0007 91.8241 22.0007 91.7437 22.0007 91.7035C22.0007 91.6632 22.0007 91.5828 21.9605 91.5426C21.9605 91.5024 21.9202 91.4219 21.9202 91.3817C21.88 91.3415 21.88 91.3012 21.8398 91.3012C21.7996 91.261 21.7594 91.261 21.6789 91.261C21.5985 91.261 21.5583 91.261 21.518 91.3012C21.4778 91.3415 21.4376 91.3817 21.4376 91.4621C21.3974 91.5426 21.3974 91.5828 21.3974 91.6632C21.3974 91.7437 21.3974 91.8241 21.3974 91.9046V93.2318C21.3974 93.3123 21.3974 93.3927 21.3974 93.433C21.3974 93.4732 21.3974 93.5536 21.4376 93.5938C21.4376 93.6341 21.4778 93.7145 21.4778 93.7547C21.518 93.7949 21.518 93.8352 21.5583 93.8352C21.5985 93.8754 21.6387 93.8754 21.7191 93.8754ZM21.7191 94.4787C21.3169 94.4787 21.0354 94.358 20.8343 94.1569C20.6332 93.9156 20.5527 93.5938 20.5527 93.1916V91.985C20.5527 91.5828 20.6332 91.261 20.8343 91.0197C21.0354 90.7784 21.3169 90.6979 21.7191 90.6979C22.1213 90.6979 22.4029 90.8186 22.604 91.0197C22.8051 91.261 22.8855 91.5828 22.8855 91.985V93.1916C22.8855 93.5938 22.7649 93.9156 22.604 94.1569C22.4029 94.358 22.1213 94.4787 21.7191 94.4787Z" fill="#054C96"/>
</g>
<g id="Group_29">
<path id="Vector_28" d="M26.063 91.4621H26.3043C26.5859 91.4621 26.787 91.4219 26.9077 91.3012C27.0283 91.1806 27.0685 90.9795 27.0685 90.6979C27.0685 90.4164 27.0283 90.2153 26.9077 90.0946C26.8272 89.9739 26.6261 89.9337 26.3446 89.9337H26.063V91.4621ZM25.1379 94.4385V89.25H26.3446C26.6261 89.25 26.8674 89.2902 27.0685 89.3304C27.2696 89.3706 27.4305 89.4511 27.5914 89.5717C27.7523 89.6924 27.8327 89.8131 27.9132 90.0142C27.9936 90.1751 28.0338 90.4164 28.0338 90.6577C28.0338 90.9795 27.9936 91.261 27.873 91.4621C27.7925 91.6632 27.6316 91.8241 27.3903 91.9045L28.1143 94.4787H27.149L26.5054 92.1056H26.1032V94.4787H25.1379V94.4385Z" fill="#054C96"/>
</g>
<g id="Group_30">
<path id="Vector_29" d="M29.4415 92.1861H30.085V91.8241C30.085 91.623 30.0448 91.5024 30.0046 91.4219C29.9644 91.3415 29.8839 91.3012 29.7633 91.3012C29.6426 91.3012 29.5622 91.3415 29.5219 91.4219C29.4817 91.5024 29.4415 91.6632 29.4415 91.9046V92.1861ZM29.7633 94.4787C29.3208 94.4787 29.0393 94.358 28.8382 94.1167C28.6371 93.8754 28.5566 93.5536 28.5566 93.071V92.0252C28.5566 91.5828 28.6371 91.2208 28.8382 90.9795C29.0393 90.7382 29.3208 90.6175 29.7633 90.6175C29.9644 90.6175 30.1655 90.6577 30.3264 90.6979C30.4872 90.7784 30.6079 90.8588 30.6883 90.9795C30.7688 91.1001 30.8492 91.261 30.8492 91.4219C30.8894 91.5828 30.8894 91.8241 30.8894 92.0654V92.5481H29.4013V93.1112V93.3123C29.4013 93.3525 29.4013 93.3927 29.4013 93.4732C29.4013 93.5536 29.4013 93.5938 29.4415 93.5938C29.4415 93.6341 29.4817 93.6743 29.4817 93.7145C29.5219 93.7547 29.5219 93.7547 29.5622 93.7949C29.6024 93.7949 29.6426 93.8352 29.6828 93.8352C29.8035 93.8352 29.8839 93.7949 29.9241 93.7145C29.9644 93.6341 30.0046 93.5134 30.0046 93.3525V93.1514H30.8492V93.3123C30.8492 93.7145 30.7688 93.996 30.5677 94.1971C30.447 94.3982 30.1655 94.4787 29.7633 94.4787Z" fill="#054C96"/>
</g>
<g id="Group_31">
<path id="Vector_30" d="M32.6191 92.709C32.78 92.709 32.8604 92.6688 32.9006 92.5481C32.9409 92.4274 32.9811 92.2263 32.9811 91.985C32.9811 91.7035 32.9409 91.5023 32.9006 91.3817C32.8604 91.261 32.78 91.2208 32.6191 91.2208C32.4582 91.2208 32.3778 91.261 32.3376 91.3817C32.2973 91.5023 32.2571 91.7035 32.2571 91.985C32.2571 92.0654 32.2571 92.1861 32.2571 92.2263C32.2571 92.3068 32.2571 92.347 32.2973 92.4274C32.2973 92.5079 32.3376 92.5481 32.3376 92.5883C32.3778 92.6285 32.3778 92.6688 32.418 92.6688C32.4984 92.709 32.5387 92.709 32.6191 92.709ZM32.78 94.9211C32.9811 94.9211 33.1017 94.8809 33.1822 94.8407C33.2626 94.8005 33.3029 94.72 33.3029 94.5994C33.3029 94.4787 33.2626 94.3983 33.2224 94.358C33.142 94.3178 33.0615 94.2776 32.9006 94.2776L32.2973 94.2374C32.1767 94.3983 32.0962 94.5189 32.0962 94.6396C32.0962 94.72 32.0962 94.7602 32.1364 94.8005C32.1767 94.8407 32.2571 94.8809 32.3376 94.8809C32.4582 94.9211 32.5789 94.9211 32.78 94.9211ZM32.78 95.5647C32.6593 95.5647 32.5789 95.5647 32.4984 95.5647C32.418 95.5647 32.3376 95.5647 32.2169 95.5647C32.0962 95.5647 32.0158 95.5244 31.9353 95.5244C31.8549 95.5244 31.7745 95.4842 31.694 95.444C31.6136 95.4038 31.5331 95.3635 31.4929 95.3233C31.4527 95.2831 31.4125 95.2429 31.3723 95.1624C31.332 95.082 31.332 95.0418 31.332 94.9613C31.332 94.6396 31.4929 94.3983 31.8549 94.1569C31.6136 94.0765 31.4929 93.9156 31.4527 93.7547C31.4527 93.6341 31.4527 93.5134 31.5331 93.3927C31.6136 93.3123 31.694 93.1916 31.8549 93.0307C31.7342 92.9101 31.6136 92.7894 31.5331 92.6285C31.4527 92.4677 31.4125 92.2665 31.4125 91.985C31.4125 91.5426 31.4929 91.1806 31.694 90.9795C31.8951 90.7382 32.1767 90.6577 32.5387 90.6577C32.9409 90.6577 33.1822 90.7784 33.3431 91.0197C33.3833 90.9795 33.4637 90.899 33.5442 90.8186C33.6246 90.7382 33.7453 90.6577 33.8257 90.6175L33.9464 90.5773L34.1475 91.0599C34.067 91.0599 33.9464 91.1001 33.8257 91.1806C33.6648 91.2208 33.5844 91.261 33.5442 91.3012C33.5844 91.3817 33.6246 91.4621 33.6648 91.623C33.7051 91.7437 33.7051 91.9046 33.7051 92.0252C33.7051 92.8699 33.3431 93.3123 32.5789 93.3123C32.5387 93.3123 32.418 93.3123 32.3376 93.2721C32.2169 93.2721 32.1767 93.2318 32.1364 93.2318C32.056 93.3525 32.0158 93.4329 32.056 93.4732C32.056 93.5536 32.1767 93.5938 32.3778 93.6341C32.418 93.6341 32.4984 93.6341 32.6995 93.6743C32.9006 93.6743 33.0213 93.7145 33.0615 93.7145C33.3833 93.7547 33.5844 93.8352 33.7453 93.996C33.9062 94.1569 33.9464 94.358 33.9464 94.6396C33.9464 94.9613 33.8659 95.2027 33.6648 95.3636C33.5442 95.4842 33.2224 95.5647 32.78 95.5647Z" fill="#054C96"/>
</g>
<g id="Group_32">
<path id="Vector_31" d="M34.5095 94.4385H35.3944V90.7381H34.5095V94.4385ZM34.5095 90.1348H35.3944V89.4109H34.5095V90.1348Z" fill="#054C96"/>
</g>
<g id="Group_33">
<path id="Vector_32" d="M37.2042 93.8754C37.2847 93.8754 37.3249 93.8754 37.3651 93.8352C37.4054 93.7949 37.4456 93.7547 37.4456 93.6743C37.4456 93.5938 37.4858 93.5536 37.4858 93.4732C37.4858 93.433 37.4858 93.3525 37.4858 93.2318V91.9046V91.7035C37.4858 91.6632 37.4858 91.5828 37.4456 91.5426C37.4456 91.5024 37.4054 91.4219 37.4054 91.3817C37.3651 91.3415 37.3651 91.3012 37.3249 91.3012C37.2847 91.261 37.2445 91.261 37.164 91.261C37.0836 91.261 37.0434 91.261 37.0031 91.3012C36.9629 91.3415 36.9227 91.3817 36.9227 91.4621C36.8825 91.5426 36.8825 91.5828 36.8825 91.6632C36.8825 91.7437 36.8825 91.8241 36.8825 91.9046V93.2318C36.8825 93.3123 36.8825 93.3927 36.8825 93.433C36.8825 93.4732 36.8825 93.5536 36.9227 93.5938C36.9227 93.6341 36.9629 93.7145 36.9629 93.7547C37.0031 93.7949 37.0031 93.8352 37.0434 93.8352C37.0836 93.8754 37.164 93.8754 37.2042 93.8754ZM37.2042 94.4787C36.802 94.4787 36.5205 94.358 36.3194 94.1569C36.1183 93.9156 36.0378 93.5938 36.0378 93.1916V91.985C36.0378 91.5828 36.1183 91.261 36.3194 91.0197C36.5205 90.7784 36.802 90.6979 37.2042 90.6979C37.6065 90.6979 37.9282 90.8186 38.0891 91.0197C38.2902 91.261 38.3707 91.5828 38.3707 91.985V93.1916C38.3707 93.5938 38.2902 93.9156 38.0891 94.1569C37.9282 94.358 37.6065 94.4787 37.2042 94.4787Z" fill="#054C96"/>
</g>
<g id="Group_34">
<path id="Vector_33" d="M39.0142 94.4385V90.7382H39.899V91.1001C40.1806 90.8186 40.5023 90.6979 40.8241 90.6979C41.0252 90.6979 41.1861 90.7784 41.2665 90.9393C41.347 91.1001 41.4274 91.3012 41.4274 91.5024V94.4787H40.5426V91.7035C40.5426 91.5828 40.5425 91.5024 40.5023 91.4621C40.4621 91.4219 40.4219 91.3817 40.3012 91.3817C40.1806 91.3817 40.0599 91.4219 39.899 91.5426V94.4787H39.0142V94.4385Z" fill="#054C96"/>
</g>
<g id="Group_35">
<path id="Vector_34" d="M43.1168 93.795C43.1973 93.795 43.2375 93.7548 43.3179 93.7145C43.3984 93.6743 43.4386 93.5939 43.4788 93.5536V92.5481C43.0364 92.7895 42.8353 93.071 42.8353 93.3525C42.8353 93.4732 42.8755 93.5939 42.9157 93.6743C42.9157 93.7547 42.9962 93.795 43.1168 93.795ZM42.7549 94.4787C42.5135 94.4787 42.3124 94.3983 42.1918 94.1972C42.0309 94.0363 41.9504 93.795 41.9504 93.5939C41.9504 93.3928 41.9907 93.1917 42.0711 93.0308C42.1515 92.8699 42.2722 92.7492 42.4331 92.6286C42.594 92.5079 42.7146 92.4275 42.8353 92.3872C42.956 92.347 43.1168 92.2666 43.3179 92.1861L43.4788 92.1459V91.8242C43.4788 91.6633 43.4788 91.5426 43.4386 91.4622C43.3984 91.3817 43.3179 91.3415 43.1973 91.3415C42.9962 91.3415 42.9157 91.4622 42.8755 91.7437V91.985L42.0309 91.9448C42.0309 91.9448 42.0309 91.9046 42.0309 91.8644C42.0309 91.8241 42.0309 91.8242 42.0309 91.7839C42.0711 91.3817 42.1515 91.1002 42.3929 90.9393C42.594 90.7382 42.8755 90.6577 43.2777 90.6577C43.6397 90.6577 43.9213 90.7382 44.0821 90.9393C44.243 91.1404 44.3637 91.4219 44.3637 91.7839V93.4732C44.3637 93.7547 44.4039 94.0765 44.4441 94.3983H43.6397C43.5995 94.157 43.5593 93.9559 43.5593 93.8352C43.5191 93.9961 43.4386 94.157 43.3179 94.2776C43.1168 94.4385 42.956 94.4787 42.7549 94.4787Z" fill="#054C96"/>
</g>
<g id="Group_36">
<path id="Vector_35" d="M45.8919 89.2098H45.0071V94.3983H45.8919V89.2098Z" fill="#054C96"/>
</g>
<g id="Group_37">
<path id="Vector_36" d="M48.1846 94.4385L48.265 89.2098H49.2303L49.9945 92.8699L50.7989 89.2098H51.724L51.8044 94.4385H51.1207L51.0402 90.8588L50.2761 94.4385H49.7532L48.989 90.8186L48.9085 94.4385H48.1846Z" fill="#054C96"/>
</g>
<g id="Group_38">
<path id="Vector_37" d="M53.3329 92.1861H53.9764V91.8241C53.9764 91.623 53.9362 91.5024 53.8959 91.4219C53.8557 91.3415 53.7753 91.3012 53.6546 91.3012C53.534 91.3012 53.4535 91.3415 53.4133 91.4219C53.3731 91.5024 53.3329 91.6632 53.3329 91.9046V92.1861ZM53.6546 94.4787C53.2122 94.4787 52.9307 94.358 52.7295 94.1167C52.5284 93.8754 52.448 93.5536 52.448 93.071V92.0252C52.448 91.5828 52.5284 91.2208 52.7295 90.9795C52.9307 90.7382 53.2122 90.6175 53.6546 90.6175C53.8557 90.6175 54.0568 90.6577 54.2177 90.6979C54.3786 90.7784 54.4993 90.8588 54.5797 90.9795C54.6601 91.1001 54.7406 91.261 54.7406 91.4219C54.7808 91.5828 54.7808 91.8241 54.7808 92.0654V92.5481H53.3329V93.1112V93.3123C53.3329 93.3525 53.3329 93.3927 53.3329 93.4732C53.3329 93.5536 53.3329 93.5938 53.3731 93.5938C53.3731 93.6341 53.4133 93.6743 53.4133 93.7145C53.4535 93.7547 53.4535 93.7547 53.4937 93.7949C53.534 93.7949 53.5742 93.8352 53.6144 93.8352C53.7351 93.8352 53.8155 93.7949 53.8557 93.7145C53.8959 93.6341 53.9362 93.5134 53.9362 93.3525V93.1514H54.7808V93.3123C54.7808 93.7145 54.7004 93.996 54.4993 94.1971C54.3384 94.3982 54.0568 94.4787 53.6546 94.4787Z" fill="#054C96"/>
</g>
<g id="Group_39">
<path id="Vector_38" d="M56.4297 94.4787C56.2688 94.4787 56.1079 94.4385 55.9873 94.3982C55.8666 94.358 55.7862 94.2776 55.7057 94.1569C55.6253 94.0363 55.5851 93.9558 55.5851 93.8352C55.5448 93.7145 55.5449 93.5536 55.5449 93.3927V91.3012H55.1829V90.7382H55.5449V89.6522H56.4297V90.7382H56.9928V91.3012H56.4297V93.433C56.4297 93.5536 56.4699 93.6341 56.5101 93.7145C56.5504 93.7547 56.671 93.7949 56.7515 93.7949C56.8319 93.7949 56.9124 93.7949 57.033 93.7949V94.4787C56.7917 94.4787 56.5906 94.4787 56.4297 94.4787Z" fill="#054C96"/>
</g>
<g id="Group_40">
<path id="Vector_39" d="M57.5559 94.4385V90.7382H58.4408V91.3013C58.5614 91.06 58.6821 90.9393 58.8027 90.8186C58.9234 90.7382 59.0441 90.6577 59.205 90.6577C59.2452 90.6577 59.2854 90.6577 59.3256 90.6577V91.5426C59.205 91.5024 59.1245 91.5024 59.0039 91.5024C58.8832 91.5024 58.7625 91.5426 58.6821 91.5828C58.6016 91.623 58.481 91.7437 58.4005 91.8644V94.3983L57.5559 94.4385Z" fill="#054C96"/>
</g>
<g id="Group_41">
<path id="Vector_40" d="M60.8942 93.8754C60.9746 93.8754 61.0149 93.8754 61.0551 93.8352C61.0953 93.7949 61.1355 93.7547 61.1757 93.6743C61.1757 93.5938 61.216 93.5536 61.216 93.4732C61.216 93.433 61.216 93.3525 61.216 93.2318V91.9046C61.216 91.8241 61.216 91.7437 61.216 91.7035C61.216 91.6632 61.216 91.5828 61.1757 91.5426C61.1757 91.5024 61.1355 91.4219 61.1355 91.3817C61.0953 91.3415 61.0953 91.3012 61.0551 91.3012C61.0149 91.261 60.9746 91.261 60.8942 91.261C60.8137 91.261 60.7735 91.261 60.7333 91.3012C60.6931 91.3415 60.6529 91.3817 60.6529 91.4621C60.6529 91.5426 60.6126 91.5828 60.6126 91.6632C60.6126 91.7437 60.6126 91.8241 60.6126 91.9046V93.2318C60.6126 93.3123 60.6126 93.3927 60.6126 93.433C60.6126 93.4732 60.6126 93.5536 60.6529 93.5938C60.6529 93.6341 60.6931 93.7145 60.6931 93.7547C60.7333 93.7949 60.7333 93.8352 60.7735 93.8352C60.7735 93.8754 60.8137 93.8754 60.8942 93.8754ZM60.8942 94.4787C60.492 94.4787 60.2104 94.358 60.0093 94.1569C59.8082 93.9156 59.7278 93.5938 59.7278 93.1916V91.985C59.7278 91.5828 59.8484 91.261 60.0093 91.0197C60.2104 90.7784 60.492 90.6979 60.8942 90.6979C61.2964 90.6979 61.5779 90.8186 61.779 91.0197C61.9802 91.261 62.0606 91.5828 62.0606 91.985V93.1916C62.0606 93.5938 61.9399 93.9156 61.779 94.1569C61.5779 94.358 61.2964 94.4787 60.8942 94.4787Z" fill="#054C96"/>
</g>
<g id="Group_42">
<path id="Vector_41" d="M63.9511 93.8754C64.0316 93.8754 64.0718 93.8352 64.112 93.8352C64.1522 93.7949 64.1925 93.7547 64.1925 93.6743C64.1925 93.5938 64.2327 93.5536 64.2327 93.4732C64.2327 93.3927 64.2327 93.3123 64.2327 93.1916V91.9046C64.2327 91.8241 64.2327 91.7437 64.2327 91.6632C64.2327 91.5828 64.1925 91.5426 64.1925 91.4621C64.1522 91.3817 64.1522 91.3415 64.0718 91.3012C64.0316 91.261 63.9511 91.261 63.9109 91.261C63.7902 91.261 63.6696 91.3012 63.5489 91.4219V93.7547C63.6696 93.8352 63.8305 93.8754 63.9511 93.8754ZM62.6641 95.6451V90.6979H63.5489V90.9795C63.7902 90.7382 64.0316 90.6175 64.3131 90.6175C64.4338 90.6175 64.5544 90.6577 64.6751 90.6979C64.7555 90.7382 64.836 90.8186 64.9164 90.899C64.9969 90.9795 65.0371 91.1001 65.0773 91.2208C65.1175 91.3415 65.1578 91.4621 65.1578 91.5426C65.1578 91.6632 65.1578 91.7437 65.1578 91.8643V93.071C65.1578 93.2721 65.1577 93.4329 65.1175 93.5938C65.0773 93.7547 65.0371 93.9156 64.9566 94.0363C64.8762 94.1569 64.7958 94.2776 64.6751 94.3178C64.5544 94.3982 64.4338 94.4385 64.2729 94.4385C64.0316 94.4385 63.8305 94.3178 63.5891 94.1167V95.6049L62.6641 95.6451Z" fill="#054C96"/>
</g>
<g id="Group_43">
<path id="Vector_42" d="M66.887 93.8754C66.9675 93.8754 67.0077 93.8754 67.0479 93.8352C67.0881 93.7949 67.1284 93.7547 67.1284 93.6743C67.1284 93.5938 67.1686 93.5536 67.1686 93.4732C67.1686 93.433 67.1686 93.3525 67.1686 93.2318V91.9046C67.1686 91.8241 67.1686 91.7437 67.1686 91.7035C67.1686 91.6632 67.1686 91.5828 67.1284 91.5426C67.1284 91.5024 67.0881 91.4219 67.0881 91.3817C67.0479 91.3415 67.0479 91.3012 67.0077 91.3012C66.9675 91.261 66.9273 91.261 66.8468 91.261C66.7664 91.261 66.7262 91.261 66.6859 91.3012C66.6457 91.3415 66.6055 91.3817 66.6055 91.4621C66.6055 91.5426 66.5653 91.5828 66.5653 91.6632C66.5653 91.7437 66.5653 91.8241 66.5653 91.9046V93.2318C66.5653 93.3123 66.5653 93.3927 66.5653 93.433C66.5653 93.4732 66.5653 93.5536 66.6055 93.5938C66.6055 93.6341 66.6457 93.7145 66.6457 93.7547C66.6859 93.7949 66.6859 93.8352 66.7262 93.8352C66.7664 93.8754 66.8066 93.8754 66.887 93.8754ZM66.8468 94.4787C66.4446 94.4787 66.1631 94.358 65.962 94.1569C65.7609 93.9156 65.6804 93.5938 65.6804 93.1916V91.985C65.6804 91.5828 65.7609 91.261 65.962 91.0197C66.1631 90.7784 66.4446 90.6979 66.8468 90.6979C67.249 90.6979 67.5306 90.8186 67.7317 91.0197C67.9328 91.261 68.0132 91.5828 68.0132 91.985V93.1916C68.0132 93.5938 67.9328 93.9156 67.7317 94.1569C67.5708 94.358 67.249 94.4787 66.8468 94.4787Z" fill="#054C96"/>
</g>
<g id="Group_44">
<path id="Vector_43" d="M69.6222 89.2098H68.7373V94.3983H69.6222V89.2098Z" fill="#054C96"/>
</g>
<g id="Group_45">
<path id="Vector_44" d="M70.3059 94.4385H71.1908V90.7381H70.3059V94.4385ZM70.3059 90.1348H71.1908V89.4109H70.3059V90.1348Z" fill="#054C96"/>
</g>
<g id="Group_46">
<path id="Vector_45" d="M72.9204 94.4787C72.7595 94.4787 72.5987 94.4385 72.478 94.3982C72.3573 94.358 72.2769 94.2776 72.1965 94.1569C72.116 94.0363 72.0758 93.9558 72.0758 93.8352C72.0356 93.7145 72.0356 93.5536 72.0356 93.3927V91.3012H71.6736V90.7382H72.0356V89.6522H72.9204V90.7382H73.4835V91.3012H72.9204V93.433C72.9204 93.5536 72.9607 93.6341 73.0009 93.7145C73.0411 93.7547 73.1618 93.7949 73.2422 93.7949C73.3226 93.7949 73.4031 93.7949 73.5237 93.7949V94.4787C73.2824 94.4787 73.0813 94.4787 72.9204 94.4787Z" fill="#054C96"/>
</g>
<g id="Group_47">
<path id="Vector_46" d="M75.0522 93.795C75.1327 93.795 75.1729 93.7548 75.2533 93.7145C75.3338 93.6743 75.374 93.5939 75.4142 93.5536V92.5481C74.9718 92.7895 74.7707 93.071 74.7707 93.3525C74.7707 93.4732 74.8109 93.5939 74.8511 93.6743C74.8913 93.7547 74.9718 93.795 75.0522 93.795ZM74.7304 94.4787C74.4891 94.4787 74.288 94.3983 74.1673 94.1972C74.0065 94.0363 73.926 93.795 73.926 93.5939C73.926 93.3928 73.9662 93.1917 74.0467 93.0308C74.1271 92.8699 74.2478 92.7492 74.4087 92.6286C74.5696 92.5079 74.6902 92.4275 74.8109 92.3872C74.9315 92.347 75.0924 92.2666 75.2935 92.1861C75.3338 92.1459 75.4142 92.1459 75.4142 92.1459V91.8242C75.4142 91.6633 75.374 91.5426 75.3338 91.4622C75.2935 91.3817 75.2131 91.3415 75.0924 91.3415C74.8913 91.3415 74.8109 91.4622 74.8109 91.7437V91.985L73.9662 91.9448V91.8644C73.9662 91.8241 73.9662 91.8242 73.9662 91.7839C74.0065 91.3817 74.1271 91.1002 74.3282 90.9393C74.5293 90.7382 74.8109 90.6577 75.2131 90.6577C75.5751 90.6577 75.8566 90.7382 76.0175 90.9393C76.1784 91.1404 76.2991 91.4219 76.2991 91.7839V93.4732C76.2991 93.7547 76.3393 94.0765 76.3795 94.3983H75.5751C75.5349 94.157 75.4946 93.9559 75.4946 93.8352C75.4544 93.9961 75.3338 94.157 75.2131 94.2776C75.0924 94.4385 74.9315 94.4787 74.7304 94.4787Z" fill="#054C96"/>
</g>
<g id="Group_48">
<path id="Vector_47" d="M76.9424 94.4385V90.7382H77.8272V91.1001C78.149 90.8186 78.4306 90.6979 78.7523 90.6979C78.9534 90.6979 79.1143 90.7784 79.1947 90.9393C79.2752 91.1001 79.3556 91.3012 79.3556 91.5024V94.4787H78.4708V91.7035C78.4708 91.5828 78.4708 91.5024 78.4306 91.4621C78.3903 91.4219 78.3501 91.3817 78.2294 91.3817C78.1088 91.3817 77.9881 91.4219 77.8272 91.5426V94.4787H76.9424V94.4385Z" fill="#054C96"/>
</g>
<g id="Group_49">
<path id="Vector_48" d="M81.0851 93.8754C81.1656 93.8754 81.2058 93.8754 81.246 93.8352C81.2862 93.7949 81.3264 93.7547 81.3667 93.6743C81.3667 93.5938 81.4069 93.5536 81.4069 93.4732C81.4069 93.433 81.4069 93.3525 81.4069 93.2318V91.9046C81.4069 91.8241 81.4069 91.7437 81.4069 91.7035C81.4069 91.6632 81.4069 91.5828 81.3667 91.5426C81.3667 91.5024 81.3264 91.4219 81.3264 91.3817C81.2862 91.3415 81.2862 91.3012 81.246 91.3012C81.2058 91.261 81.1656 91.261 81.0851 91.261C81.0047 91.261 80.9644 91.261 80.9242 91.3012C80.884 91.3415 80.8438 91.3817 80.8438 91.4621C80.8438 91.5426 80.8036 91.5828 80.8036 91.6632C80.8036 91.7437 80.8036 91.8241 80.8036 91.9046V93.2318C80.8036 93.3123 80.8036 93.3927 80.8036 93.433C80.8036 93.4732 80.8036 93.5536 80.8438 93.5938C80.8438 93.6341 80.884 93.7145 80.884 93.7547C80.9242 93.7949 80.9644 93.8352 81.0047 93.8352C80.9644 93.8754 81.0449 93.8754 81.0851 93.8754ZM81.0851 94.4787C80.6829 94.4787 80.4013 94.358 80.2002 94.1569C79.9991 93.9156 79.9187 93.5938 79.9187 93.1916V91.985C79.9187 91.5828 79.9991 91.261 80.2002 91.0197C80.4013 90.7784 80.6829 90.6979 81.0851 90.6979C81.4873 90.6979 81.7689 90.8186 81.97 91.0197C82.1711 91.261 82.2515 91.5828 82.2515 91.985V93.1916C82.2515 93.5938 82.1711 93.9156 81.97 94.1569C81.7689 94.358 81.4873 94.4787 81.0851 94.4787Z" fill="#054C96"/>
</g>
<g id="Group_50">
<path id="Vector_49" d="M28.6775 100.27C28.7982 100.27 28.8786 100.23 28.9993 100.19V97.817C28.8786 97.7366 28.758 97.6963 28.6775 97.6963C28.5568 97.6963 28.4764 97.7366 28.4362 97.8572C28.396 97.9779 28.3557 98.0986 28.3557 98.2594V99.6269C28.3557 99.7476 28.3557 99.8683 28.396 99.9487C28.396 100.029 28.4362 100.11 28.4764 100.19C28.5166 100.27 28.5971 100.27 28.6775 100.27ZM28.3557 100.914C28.034 100.914 27.8329 100.793 27.672 100.592C27.5111 100.391 27.4307 100.029 27.4307 99.5465V98.4605C27.4307 98.2594 27.4307 98.0986 27.4709 97.9377C27.5111 97.7768 27.5513 97.6159 27.6318 97.4952C27.7122 97.3746 27.7927 97.2539 27.9133 97.1735C28.034 97.093 28.1949 97.0528 28.3557 97.0528C28.5971 97.0528 28.7982 97.1333 28.9993 97.3344V95.6049H29.8841V100.793H28.9993V100.552C28.7982 100.793 28.5971 100.914 28.3557 100.914Z" fill="#054C96"/>
</g>
<g id="Group_51">
<path id="Vector_50" d="M31.3722 98.6214H32.0157V98.2594C32.0157 98.0583 31.9755 97.9377 31.9353 97.8572C31.895 97.7768 31.8146 97.7365 31.6939 97.7365C31.5733 97.7365 31.4928 97.7768 31.4526 97.8572C31.4124 97.9377 31.3722 98.0985 31.3722 98.3399V98.6214ZM31.6939 100.914C31.2917 100.914 30.97 100.793 30.7688 100.552C30.5677 100.311 30.4873 99.9889 30.4873 99.5063V98.4605C30.4873 98.0181 30.5677 97.6561 30.7688 97.4148C30.97 97.1735 31.2515 97.0528 31.6939 97.0528C31.9353 97.0528 32.0961 97.093 32.257 97.1332C32.4179 97.2137 32.5386 97.2941 32.619 97.4148C32.6994 97.5354 32.7799 97.6963 32.7799 97.8572C32.8201 98.0181 32.8201 98.2192 32.8201 98.5007V98.9834H31.3722V99.5465V99.7074C31.3722 99.7476 31.3722 99.7878 31.3722 99.8683C31.3722 99.9487 31.3722 99.9889 31.4124 100.029C31.4124 100.069 31.4526 100.11 31.4526 100.11C31.4928 100.15 31.4928 100.19 31.533 100.19C31.5733 100.19 31.6135 100.19 31.6537 100.19C31.7744 100.19 31.8548 100.15 31.895 100.069C31.9353 99.9889 31.9755 99.8682 31.9755 99.7074V99.5063H32.8201V99.6671C32.8201 100.069 32.7397 100.351 32.5386 100.552C32.3375 100.793 32.0559 100.914 31.6939 100.914Z" fill="#054C96"/>
</g>
<g id="Group_52">
<path id="Vector_51" d="M36.3596 100.914C35.4345 100.914 34.9518 100.391 34.9116 99.3454L35.716 99.1845C35.7563 99.8683 35.9171 100.23 36.3193 100.23C36.4802 100.23 36.5607 100.19 36.6411 100.11C36.7216 100.029 36.7618 99.9085 36.7618 99.7476C36.7618 99.5867 36.7216 99.4661 36.6813 99.3454C36.6411 99.2248 36.5607 99.1443 36.4802 99.0639C36.3998 98.9834 36.3193 98.903 36.1987 98.7823L35.5149 98.179C35.3138 98.0181 35.1529 97.817 35.0725 97.6159C34.9921 97.4148 34.9116 97.1735 34.9116 96.892C34.9116 96.4897 35.0323 96.168 35.2736 95.9669C35.5149 95.7256 35.8367 95.6451 36.2389 95.6451C36.44 95.6451 36.6009 95.6853 36.7618 95.7256C36.9227 95.7658 37.0433 95.8462 37.1238 95.9267C37.2042 96.0071 37.2846 96.1278 37.3651 96.2484C37.4455 96.3691 37.4858 96.4897 37.4858 96.6506C37.526 96.7713 37.526 96.9322 37.5662 97.0931L36.7618 97.2539C36.7618 97.1333 36.7618 97.0528 36.7618 96.9724C36.7618 96.892 36.7216 96.8115 36.7216 96.7311C36.6813 96.6506 36.6813 96.5702 36.6411 96.53C36.6009 96.4897 36.5607 96.4495 36.4802 96.4093C36.44 96.3691 36.3596 96.3691 36.2791 96.3691C36.1585 96.3691 36.0378 96.4093 35.9574 96.4897C35.8769 96.5702 35.8367 96.6909 35.8367 96.8517C35.8367 97.0126 35.8769 97.1735 35.9171 97.2539C35.9976 97.3746 36.078 97.4953 36.2389 97.6159L36.9227 98.2192C37.0433 98.3399 37.1238 98.4203 37.2042 98.5008C37.2846 98.5812 37.3651 98.7019 37.4455 98.8226C37.526 98.9432 37.5662 99.0639 37.6064 99.2248C37.6466 99.3856 37.6869 99.5465 37.6869 99.7074C37.6869 100.069 37.5662 100.391 37.3249 100.632C37.0835 100.793 36.7618 100.914 36.3596 100.914Z" fill="#054C96"/>
</g>
<g id="Group_53">
<path id="Vector_52" d="M39.2153 100.23C39.2957 100.23 39.336 100.19 39.4164 100.15C39.4968 100.11 39.5371 100.029 39.5773 99.989V98.9835C39.1349 99.2248 38.9338 99.5063 38.9338 99.7879C38.9338 99.9085 38.974 100.029 39.0142 100.11C39.0544 100.19 39.1349 100.23 39.2153 100.23ZM38.8935 100.914C38.6522 100.914 38.4511 100.834 38.3304 100.633C38.1696 100.431 38.0891 100.23 38.0891 100.029C38.0891 99.8281 38.1293 99.627 38.2098 99.4661C38.2902 99.3052 38.4109 99.1846 38.5718 99.0639C38.7326 98.9432 38.8533 98.8628 38.974 98.8226C39.0946 98.7824 39.2555 98.7019 39.4566 98.6215L39.6175 98.5813V98.2595C39.6175 98.0986 39.5773 97.9779 39.5773 97.8975C39.5371 97.8171 39.4566 97.7768 39.336 97.7768C39.1349 97.7768 39.0544 97.8975 39.0544 98.179V98.4204L38.2098 98.3801V98.2997V98.2193C38.25 97.8171 38.3707 97.5355 38.5718 97.3746C38.7729 97.1735 39.0544 97.0931 39.4566 97.0931C39.8186 97.0931 40.1002 97.1735 40.261 97.3746C40.4219 97.5757 40.5426 97.8573 40.5426 98.2193V99.9085C40.5426 100.19 40.5828 100.512 40.623 100.834H39.8186C39.7784 100.592 39.7382 100.391 39.7382 100.271C39.6979 100.431 39.6175 100.592 39.4566 100.713C39.2153 100.874 39.0946 100.914 38.8935 100.914Z" fill="#054C96"/>
</g>
<g id="Group_54">
<path id="Vector_53" d="M41.0654 100.874V97.1735H41.9503V97.5354C42.2318 97.2539 42.5536 97.1332 42.8351 97.1332C43.0363 97.1332 43.1971 97.2137 43.2776 97.3746C43.358 97.5355 43.4385 97.7366 43.4385 97.9377V100.914H42.5536V98.1388C42.5536 98.0181 42.5536 97.9377 42.5134 97.8572C42.4732 97.817 42.4329 97.7768 42.3123 97.7768C42.1916 97.7768 42.0709 97.817 41.9101 97.9377V100.874H41.0654Z" fill="#054C96"/>
</g>
<g id="Group_55">
<path id="Vector_54" d="M45.1679 100.914C45.007 100.914 44.8462 100.874 44.7255 100.834C44.6048 100.793 44.5244 100.713 44.444 100.592C44.3635 100.472 44.3233 100.391 44.2831 100.27C44.2428 100.15 44.2428 99.9889 44.2428 99.8281V97.7366H43.8809V97.1735H44.2428V96.0875H45.1277V97.1735H45.6908V97.7366H45.1277V99.8683C45.1277 99.9889 45.1679 100.069 45.2081 100.15C45.2484 100.19 45.369 100.23 45.4495 100.23C45.5299 100.23 45.6104 100.23 45.731 100.23V100.914C45.4897 100.874 45.2886 100.914 45.1679 100.914Z" fill="#054C96"/>
</g>
<g id="Group_56">
<path id="Vector_55" d="M46.2942 100.874H47.179V97.1735H46.2942V100.874ZM46.2942 96.5702H47.179V95.8462H46.2942V96.5702Z" fill="#054C96"/>
</g>
<g id="Group_57">
<path id="Vector_56" d="M48.9087 100.23C48.9891 100.23 49.0293 100.19 49.1098 100.15C49.1902 100.11 49.2304 100.029 49.2706 99.989V98.9835C48.8282 99.2248 48.6271 99.5063 48.6271 99.7879C48.6271 99.9085 48.6673 100.029 48.7075 100.11C48.7478 100.19 48.8282 100.23 48.9087 100.23ZM48.5869 100.914C48.3456 100.914 48.1445 100.834 48.0238 100.633C47.8629 100.431 47.7825 100.23 47.7825 100.029C47.7825 99.8281 47.8227 99.627 47.9031 99.4661C47.9836 99.3052 48.1042 99.1846 48.2651 99.0639C48.426 98.9432 48.5467 98.8628 48.6673 98.8226C48.788 98.7824 48.9489 98.7019 49.15 98.6215L49.3109 98.5813V98.2595C49.3109 98.0986 49.2706 97.9779 49.2304 97.8975C49.1902 97.8171 49.1098 97.7768 48.9891 97.7768C48.788 97.7768 48.7075 97.8975 48.7075 98.179V98.4204L47.8629 98.3801V98.2997V98.2193C47.9031 97.8171 48.0238 97.5355 48.2249 97.3746C48.426 97.1735 48.7075 97.0931 49.1098 97.0931C49.4717 97.0931 49.7533 97.1735 49.9142 97.3746C50.0751 97.5757 50.1957 97.8573 50.1957 98.2193V99.9085C50.1957 100.19 50.1957 100.512 50.2762 100.834H49.4717C49.4315 100.592 49.3913 100.391 49.3913 100.271C49.3511 100.431 49.2304 100.592 49.15 100.713C48.9087 100.874 48.7478 100.914 48.5869 100.914Z" fill="#054C96"/>
</g>
<g id="Group_58">
<path id="Vector_57" d="M51.885 99.1443C52.0458 99.1443 52.1263 99.1041 52.1665 98.9835C52.2067 98.8628 52.247 98.7019 52.247 98.4204C52.247 98.1388 52.247 97.9377 52.1665 97.817C52.1263 97.6964 52.0458 97.6562 51.885 97.6562C51.7241 97.6562 51.6436 97.6964 51.6034 97.817C51.5632 97.9377 51.523 98.1388 51.523 98.4204C51.523 98.5008 51.523 98.6215 51.523 98.6617C51.523 98.7421 51.523 98.7823 51.5632 98.8628C51.5632 98.9432 51.6034 98.9834 51.6436 99.0237C51.6839 99.0639 51.6839 99.1041 51.7241 99.1041C51.7643 99.1443 51.8045 99.1443 51.885 99.1443ZM52.0458 101.356C52.2067 101.356 52.3676 101.316 52.4481 101.276C52.5285 101.236 52.5687 101.155 52.5687 101.035C52.5687 100.914 52.5687 100.834 52.4883 100.793C52.4481 100.753 52.3274 100.713 52.1665 100.713L51.5632 100.673C51.4425 100.834 51.3621 100.954 51.3621 101.075C51.3621 101.155 51.3621 101.196 51.4023 101.236C51.4425 101.276 51.4828 101.316 51.6034 101.316C51.6839 101.356 51.8447 101.356 52.0458 101.356ZM52.0458 102C51.9252 102 51.8447 102 51.7643 102C51.6839 102 51.6034 102 51.4828 102C51.3621 102 51.2817 101.96 51.2012 101.96C51.1208 101.96 51.0403 101.92 50.9599 101.879C50.8794 101.839 50.799 101.799 50.7588 101.759C50.7186 101.718 50.6783 101.678 50.6381 101.598C50.5979 101.517 50.5979 101.477 50.5979 101.356C50.5979 101.035 50.7588 100.793 51.1208 100.552C50.8794 100.472 50.7186 100.311 50.7186 100.15C50.7186 100.029 50.7186 99.9085 50.799 99.7879C50.8794 99.7074 51.0001 99.5868 51.161 99.4259C51.0001 99.3052 50.9197 99.1846 50.8392 99.0237C50.7588 98.8628 50.7186 98.6617 50.7186 98.3801C50.7186 97.9377 50.8392 97.5757 51.0001 97.3746C51.2012 97.1333 51.4828 97.0529 51.8447 97.0529C52.247 97.0529 52.4883 97.1735 52.6492 97.4148C52.6894 97.3746 52.7698 97.2942 52.8503 97.2137C52.9307 97.1333 53.0514 97.0529 53.1318 97.0126L53.2525 96.9724L53.4536 97.4551C53.3731 97.4551 53.2525 97.4953 53.1318 97.5757C52.9709 97.6159 52.8905 97.6562 52.8503 97.6964C52.8905 97.7768 52.9307 97.8573 52.9709 98.0181C53.0111 98.1388 53.0111 98.2997 53.0111 98.4204C53.0111 99.265 52.6492 99.7074 51.885 99.7074C51.8045 99.7074 51.7241 99.7074 51.6436 99.6672C51.523 99.6672 51.4828 99.627 51.4425 99.627C51.3621 99.7476 51.3219 99.8281 51.3621 99.8683C51.3621 99.9488 51.4828 99.989 51.6839 100.029C51.7241 100.029 51.8045 100.029 52.0056 100.069C52.2067 100.11 52.3274 100.11 52.3676 100.11C52.6894 100.15 52.8905 100.23 53.0514 100.391C53.2122 100.552 53.2525 100.753 53.2525 101.035C53.2525 101.356 53.172 101.598 52.9709 101.759C52.7698 101.92 52.4883 102 52.0458 102Z" fill="#054C96"/>
</g>
<g id="Group_59">
<path id="Vector_58" d="M54.8612 100.311C54.9417 100.311 54.9819 100.311 55.0221 100.271C55.0623 100.23 55.1026 100.19 55.1026 100.11C55.1428 100.029 55.1428 99.989 55.1428 99.9085C55.1428 99.8683 55.1428 99.7879 55.1428 99.6672V98.3399C55.1428 98.2595 55.1428 98.179 55.1428 98.1388C55.1428 98.0986 55.1428 98.0182 55.1428 97.9779C55.1428 97.8975 55.1026 97.8573 55.1026 97.8171C55.1026 97.7768 55.0623 97.7366 55.0221 97.7366C54.9819 97.7366 54.9417 97.6964 54.8612 97.6964C54.7808 97.6964 54.7406 97.6964 54.7003 97.7366C54.6601 97.7768 54.6199 97.8171 54.6199 97.8975C54.6199 97.9779 54.5797 98.0182 54.5797 98.0986C54.5797 98.179 54.5797 98.2193 54.5797 98.3399V99.6672C54.5797 99.7477 54.5797 99.7879 54.5797 99.8683C54.5797 99.9085 54.5797 99.989 54.5797 100.029C54.5797 100.11 54.6199 100.15 54.6199 100.19C54.6601 100.23 54.6601 100.271 54.7003 100.271C54.7406 100.271 54.7808 100.311 54.8612 100.311ZM54.8612 100.914C54.459 100.914 54.1775 100.793 53.9764 100.552C53.7753 100.311 53.6948 99.989 53.6948 99.5868V98.3801C53.6948 97.9779 53.8155 97.616 53.9764 97.4148C54.1775 97.1735 54.459 97.0931 54.8612 97.0931C55.2634 97.0931 55.545 97.2137 55.7461 97.4148C55.9472 97.6562 56.0276 97.9779 56.0276 98.3801V99.5868C56.0276 99.989 55.9472 100.311 55.7461 100.552C55.545 100.793 55.2634 100.914 54.8612 100.914Z" fill="#054C96"/>
</g>
<g id="Group_60">
<path id="Vector_59" d="M34.5496 0C35.5149 0 36.3193 0.321767 37.0031 1.00552C37.6466 1.64905 38.0086 2.41325 38.0488 3.33833C38.0891 4.34385 37.7271 5.18849 37.0433 5.91246C36.3596 6.59621 35.4747 6.9582 34.5094 6.91798C33.5843 6.87776 32.7799 6.51577 32.0962 5.83202C31.4526 5.14826 31.1309 4.30363 31.1711 3.37855C31.1711 2.45347 31.5331 1.64905 32.2168 1.00552C32.7799 0.361987 33.5843 0 34.5496 0Z" fill="#ED962E"/>
</g>
<g id="Group_61">
<path id="Vector_60" d="M49.9141 3.53946C50.0347 3.53946 50.1152 3.53946 50.2358 3.53946C50.5978 3.53946 50.9598 3.6199 51.2816 3.78078C51.724 3.98189 52.1262 4.22321 52.448 4.5852C52.81 4.98741 53.0513 5.42984 53.1719 5.95271C53.2524 6.23425 53.2926 6.5158 53.2926 6.79734C53.2524 7.19955 53.2122 7.56154 53.0513 7.96375C52.8502 8.52684 52.448 8.96927 52.0055 9.33126C51.6033 9.69324 51.1207 9.89435 50.5978 10.0552C50.1956 10.1759 49.7532 10.1759 49.351 10.1759C49.0292 10.1759 48.7477 10.0552 48.4661 9.97479C47.9835 9.81391 47.5813 9.53236 47.2595 9.17037C47.0986 9.00949 46.9779 8.80839 46.8573 8.60728C46.6964 8.36596 46.616 8.08441 46.4953 7.80287C46.4551 7.72242 46.4551 7.64198 46.4551 7.56154C46.3746 7.27999 46.3746 6.99845 46.4148 6.75712C46.4551 6.39514 46.5355 6.03315 46.6964 5.71138C46.8975 5.22873 47.2193 4.82653 47.5813 4.46454C48.0237 4.06233 48.5465 3.82101 49.1499 3.66012C49.3912 3.53946 49.6727 3.53946 49.9141 3.53946Z" fill="#E32578"/>
</g>
<g id="Group_62">
<path id="Vector_61" d="M43.8004 26.8273C44.4037 26.7871 44.9265 26.9882 45.4494 27.2697C45.8516 27.4708 46.1734 27.7926 46.4549 28.1546C46.7365 28.5166 46.8974 28.9188 47.018 29.321C47.0583 29.5221 47.0985 29.7232 47.1387 29.9243V30.2058C47.1387 30.8494 46.9376 31.4527 46.5756 31.9755C46.2538 32.4582 45.8114 32.8202 45.2483 33.0615C44.9668 33.1822 44.6852 33.2626 44.3635 33.3028C44.1624 33.3431 43.921 33.3431 43.7199 33.3431C43.3982 33.3028 43.0764 33.2626 42.7546 33.142C42.4731 33.0213 42.1915 32.9006 41.9502 32.6995C41.7491 32.5386 41.5078 32.3778 41.3469 32.1364C41.2262 31.9353 41.0654 31.7744 40.9447 31.5733C40.7838 31.2918 40.6631 31.0103 40.6229 30.6885C40.5425 30.4069 40.5425 30.1254 40.5425 29.8438C40.5425 29.4819 40.6229 29.1601 40.7436 28.8383C40.9045 28.3959 41.186 28.0339 41.5078 27.7121C41.91 27.3502 42.3524 27.0686 42.9155 26.9479C43.0362 26.9077 43.1971 26.9077 43.3177 26.8675C43.5188 26.7871 43.6395 26.8273 43.8004 26.8273Z" fill="#00AAD0"/>
</g>
<g id="Group_63">
<path id="Vector_62" d="M29.6427 28.3556C29.2808 28.3959 28.9188 28.2752 28.597 28.1143C28.3959 28.0339 28.235 27.9132 28.0741 27.7523C27.8328 27.511 27.5915 27.2697 27.4708 26.9881C27.3502 26.7066 27.2295 26.3848 27.2295 26.0631C27.2295 25.7815 27.2295 25.5 27.3502 25.2184C27.511 24.8564 27.7121 24.4945 28.0339 24.2531C28.2752 24.0922 28.5166 23.9314 28.7579 23.8509C29.0394 23.7303 29.3612 23.7303 29.683 23.7303C29.9645 23.7705 30.2461 23.8107 30.4874 23.9314C30.8091 24.0922 31.1309 24.3336 31.3722 24.6151C31.6136 24.8967 31.7342 25.2184 31.8147 25.5804C31.8549 25.862 31.8951 26.1033 31.8147 26.3848C31.7744 26.6664 31.694 26.9479 31.5331 27.1892C31.3722 27.511 31.0907 27.7926 30.7689 27.9937C30.608 28.0741 30.4472 28.1948 30.2461 28.235C30.0852 28.3556 29.8841 28.3959 29.6427 28.3556Z" fill="#9C2B82"/>
</g>
<g id="Group_64">
<path id="Vector_63" d="M27.3501 15.5252C25.862 15.5252 24.8967 14.5197 24.8564 13.3935C24.8564 12.7098 25.0978 12.1467 25.5804 11.7043C25.9826 11.3423 26.4251 11.1412 26.9479 11.1412C27.5915 11.101 28.1546 11.3021 28.6372 11.7847C29.1199 12.2674 29.321 12.8304 29.2807 13.474C29.2405 14.0773 28.9992 14.5599 28.5568 14.9622C28.1546 15.3241 27.6719 15.485 27.3501 15.5252Z" fill="#3DAB63"/>
</g>
<path id="Vector_64" d="M51.6837 17.8982C52.287 17.858 52.8099 18.0993 53.2121 18.5016C53.5741 18.8635 53.7752 19.3462 53.8154 19.8691C53.8556 20.5126 53.6143 21.0355 53.1719 21.4779C52.8099 21.8399 52.3675 22.041 51.8446 22.0812C51.4424 22.1214 51.0804 22.041 50.7184 21.8399C50.3564 21.6388 50.0749 21.3975 49.8738 21.0757C49.6727 20.7539 49.552 20.3517 49.552 19.9897C49.552 19.6277 49.6324 19.2657 49.8335 18.944C50.0347 18.6222 50.276 18.3407 50.638 18.1396C50.9597 17.9385 51.3217 17.858 51.6837 17.8982Z" fill="#ED962E"/>
</g>
</svg>
