<svg width="110" height="79" viewBox="0 0 110 79" fill="none" xmlns="http://www.w3.org/2000/svg">
<g id="Group">
<path id="Vector" d="M92.2826 21.8634C91.9943 21.3829 91.6819 20.9264 91.3215 20.4939C89.6878 18.5238 87.4774 17.2264 84.6424 16.6018C84.282 16.5297 83.7775 16.4096 83.1288 16.2654C79.0444 15.3765 76.9782 14.3674 76.9782 13.2141C76.9782 12.5895 77.2665 12.109 77.8191 11.7726C78.3717 11.4362 79.1645 11.244 80.1976 11.244C81.5431 11.244 82.9366 11.5083 84.3541 12.0609C85.7956 12.6135 87.2131 13.4063 88.6306 14.4635L93.1235 3.72399C90.817 2.47465 88.5345 1.53765 86.2521 0.937003C83.9697 0.312334 81.6392 0 79.2846 0C74.1672 0 70.0347 1.39349 66.8634 4.15645C63.716 6.9194 62.1303 10.4992 62.1303 14.92C62.1303 17.755 62.9472 20.1335 64.5809 22.0316C66.2147 23.9296 68.5452 25.275 71.6204 26.0198C72.149 26.14 72.8698 26.2841 73.8068 26.5004C76.7139 27.101 78.1554 27.9659 78.1554 29.1192C78.1554 29.7679 77.8671 30.2964 77.2905 30.6808C76.7139 31.0652 75.921 31.2575 74.912 31.2575C73.4704 31.2575 71.9328 30.9211 70.275 30.2243C68.6172 29.5516 66.7432 28.4705 64.629 26.9809L59.9199 38.4652C62.6108 40.0028 65.3017 41.156 67.9926 41.9249C70.6834 42.6937 73.3743 43.0781 76.0652 43.0781C78.9723 43.0781 81.5911 42.6216 83.8976 41.7327L92.2826 21.8634Z" fill="#0C3A5C"/>
<path id="Vector_2" d="M58.2144 19.5089C58.1904 19.1004 58.1663 18.4758 58.1183 17.6349H35.438V27.2692H41.8529C41.6847 28.3263 41.1561 29.1672 40.2672 29.7679C39.3782 30.3685 38.225 30.6568 36.8075 30.6568C34.4049 30.6568 32.5549 29.864 31.2575 28.2542C29.9602 26.6445 29.2874 24.4101 29.2874 21.503C29.2874 18.692 29.9361 16.4576 31.2335 14.7998C32.5309 13.1421 34.2848 12.3012 36.4711 12.3012C37.7205 12.3012 38.8256 12.5895 39.8107 13.1421C40.7717 13.6947 41.6126 14.5596 42.3094 15.6888L55.4514 10.8116C53.3852 7.25576 50.6943 4.56489 47.4269 2.71491C44.1834 0.912977 40.4354 0 36.2309 0C33.8283 0 31.5699 0.312334 29.4316 0.937003L16.5298 31.4497C17.5389 33.4678 18.8603 35.2938 20.494 36.9275C22.5602 38.9457 24.9148 40.4833 27.5816 41.5164C30.2485 42.5495 33.1316 43.0781 36.2309 43.0781C40.4354 43.0781 44.1834 42.1411 47.4989 40.2911C50.8145 38.4411 53.5054 35.7503 55.5956 32.2425C56.4605 30.7529 57.1092 29.0231 57.5657 27.077C58.0222 25.1309 58.2384 22.9926 58.2384 20.6381C58.2384 20.2777 58.2384 19.9173 58.2144 19.5089Z" fill="#0C3A5C"/>
<path id="Vector_3" d="M43.7989 53.0249C42.8138 53.0249 42.1411 53.7937 42.1411 54.7547V54.7787C42.1411 55.7398 42.8379 56.5086 43.7989 56.5086C44.7839 56.5086 45.4567 55.7398 45.4567 54.7787V54.7547C45.4567 53.8177 44.7839 53.0249 43.7989 53.0249Z" fill="#E84910"/>
<path id="Vector_4" d="M70.8281 55.283H72.534L71.669 53.3129L70.8281 55.283Z" fill="#E84910"/>
<path id="Vector_5" d="M11.8926 53.0249C10.9076 53.0249 10.2349 53.7937 10.2349 54.7547V54.7787C10.2349 55.7398 10.9316 56.5086 11.8926 56.5086C12.8537 56.5086 13.5504 55.7398 13.5504 54.7787V54.7547C13.5504 53.8177 12.8537 53.0249 11.8926 53.0249Z" fill="#E84910"/>
<path id="Vector_6" d="M52.4723 53.0968H51.5112V56.4364H52.4723C53.5054 56.4364 54.1781 55.7397 54.1781 54.7786V54.7546C54.1781 53.8176 53.5054 53.0968 52.4723 53.0968Z" fill="#E84910"/>
<path id="Vector_7" d="M18.2835 55.115H16.9141V56.4605H18.3556C18.9562 56.4605 19.2926 56.2202 19.2926 55.7877V55.7637C19.2926 55.3553 18.9562 55.115 18.2835 55.115Z" fill="#E84910"/>
<path id="Vector_8" d="M19.0283 53.7215C19.0283 53.3131 18.716 53.0728 18.1634 53.0728H16.9141V54.3702H18.0913C18.6439 54.3702 19.0283 54.154 19.0283 53.7215Z" fill="#E84910"/>
<path id="Vector_9" d="M32.8668 53.9137C32.8668 53.3851 32.4824 53.0968 31.8577 53.0968H30.6084V54.7546H31.8818C32.4584 54.7546 32.8668 54.4182 32.8668 53.9137Z" fill="#E84910"/>
<path id="Vector_10" d="M0 61.4579H109.677V47.9795H0V61.4579ZM7.85641 56.5326C7.37589 56.9411 6.67915 57.3015 5.81422 57.3015C4.27658 57.3015 3.2675 56.1963 3.2675 54.7788V54.7547C3.2675 53.3853 4.32463 52.208 5.7902 52.208C6.65512 52.208 7.15966 52.4483 7.68823 52.8807L7.13564 53.5294C6.75122 53.2171 6.39084 53.0009 5.76617 53.0009C4.85319 53.0009 4.18047 53.7937 4.18047 54.7307V54.7547C4.18047 55.7638 4.85319 56.5086 5.83825 56.5086C6.29474 56.5086 6.7272 56.3645 7.01551 56.1482V55.2353H5.76617V54.4905H7.85641V56.5326ZM14.4635 54.7547C14.4635 56.1242 13.4063 57.3015 11.8927 57.3015C10.3791 57.3015 9.32198 56.1482 9.32198 54.7788V54.7547C9.32198 53.3853 10.3791 52.208 11.8927 52.208C13.4063 52.232 14.4635 53.3613 14.4635 54.7547ZM20.1576 55.884C20.1576 56.7489 19.4368 57.2294 18.3316 57.2294H16.0492V52.3281H18.2595C18.8121 52.3281 19.2686 52.4723 19.5329 52.7606C19.7491 52.9768 19.8693 53.2411 19.8693 53.5775V53.6015C19.8693 54.2022 19.5329 54.5145 19.1725 54.7067C19.7491 54.8749 20.1576 55.1872 20.1576 55.884ZM22.6082 57.2294H21.7433V52.3281H22.6082V57.2294ZM28.1341 57.2294H24.4582V52.3281H28.1101V53.097H25.3231V54.3703H27.7737V55.1392H25.3231V56.4606H28.1341V57.2294ZM32.8672 57.2294L31.6659 55.5236H30.5847V57.2294H29.7198V52.3281H31.9061C32.5308 52.3281 33.0113 52.5204 33.3237 52.8087C33.5879 53.0729 33.7321 53.4333 33.7321 53.8658V53.8898C33.7321 54.7067 33.2516 55.1872 32.5789 55.3794L33.9003 57.2294H32.8672ZM39.6424 57.2294H38.9217L36.2067 53.7457V57.2294H35.3658V52.3281H36.1587L38.7775 55.7158V52.3281H39.6184V57.2294H39.6424ZM46.3696 54.7547C46.3696 56.1242 45.3125 57.3015 43.7989 57.3015C42.2853 57.3015 41.2281 56.1482 41.2281 54.7788V54.7547C41.2281 53.3853 42.2853 52.208 43.7989 52.208C45.3125 52.232 46.3696 53.3613 46.3696 54.7547ZM55.091 54.7547C55.091 56.1242 54.0338 57.2054 52.4722 57.2054H50.6462V52.3041H52.4722C54.0098 52.3041 55.091 53.3613 55.091 54.7547ZM60.3526 57.2294H56.6767V52.3281H60.3045V53.097H57.5176V54.3703H59.9682V55.1392H57.5176V56.4606H60.3286V57.2294H60.3526ZM68.0889 55.8359C68.0889 56.7489 67.3681 57.3015 66.335 57.3015C65.5902 57.3015 64.8694 57.0372 64.2928 56.5086L64.8214 55.884C65.3019 56.2924 65.7584 56.5326 66.359 56.5326C66.8876 56.5326 67.2239 56.2684 67.2239 55.908V55.884C67.2239 55.5236 67.0317 55.3554 66.1188 55.1392C65.0857 54.8749 64.485 54.5866 64.485 53.6736V53.6496C64.485 52.8087 65.1818 52.232 66.1668 52.232C66.8876 52.232 67.4402 52.4483 67.9447 52.8567L67.4882 53.5054C67.0558 53.169 66.5993 53.0009 66.1668 53.0009C65.6623 53.0009 65.374 53.2651 65.374 53.5775V53.6015C65.374 53.9859 65.5902 54.1541 66.5512 54.3703C67.5363 54.6346 68.0889 54.995 68.0889 55.8359ZM73.3265 57.2294L72.8219 56.0521H70.4914L69.9869 57.2294H69.0979L71.2603 52.2801H72.0531L74.2154 57.2294H73.3265ZM79.9335 57.2294H79.2128L76.4979 53.7457V57.2294H75.657V52.3281H76.4498L79.0686 55.7158V52.3281H79.9095V57.2294H79.9335ZM85.3874 53.121H83.8257V57.2294H82.9608V53.121H81.3991V52.3281H85.3874V53.121ZM87.7659 57.2294H86.901V52.3281H87.7659V57.2294ZM93.412 57.2294L92.9074 56.0521H90.5769L90.0724 57.2294H89.1834L91.3458 52.2801H92.1386L94.3009 57.2294H93.412ZM99.8028 56.5326C99.3223 56.9411 98.6255 57.3015 97.7606 57.3015C96.223 57.3015 95.2139 56.1963 95.2139 54.7788V54.7547C95.2139 53.3853 96.271 52.208 97.7366 52.208C98.6015 52.208 99.1061 52.4483 99.6106 52.8807L99.058 53.5294C98.6736 53.2171 98.3132 53.0009 97.6885 53.0009C96.7756 53.0009 96.1028 53.7937 96.1028 54.7307V54.7547C96.1028 55.7638 96.7756 56.5086 97.7606 56.5086C98.2171 56.5086 98.6496 56.3645 98.9379 56.1482V55.2353H97.6885V54.4905H99.7788V56.5326H99.8028ZM106.386 54.7547C106.386 56.1242 105.329 57.3015 103.815 57.3015C102.301 57.3015 101.244 56.1482 101.244 54.7788V54.7547C101.244 53.3853 102.301 52.208 103.815 52.208C105.353 52.232 106.386 53.3613 106.386 54.7547Z" fill="#E84910"/>
<path id="Vector_11" d="M90.9136 55.283H92.6194L91.7545 53.3129L90.9136 55.283Z" fill="#E84910"/>
<path id="Vector_12" d="M103.815 53.0249C102.83 53.0249 102.157 53.7937 102.157 54.7547V54.7787C102.157 55.7398 102.854 56.5086 103.815 56.5086C104.8 56.5086 105.473 55.7398 105.473 54.7787V54.7547C105.497 53.8177 104.8 53.0249 103.815 53.0249Z" fill="#E84910"/>
</g>
</svg>
