<svg width="183" height="49" viewBox="0 0 183 49" fill="none" xmlns="http://www.w3.org/2000/svg">
<g id="Group 38093">
<rect id="Rectangle 4512" x="0.5" y="0.5" width="182" height="48" fill="white" stroke="#EAECF0"/>
<g id="Group">
<path id="Vector" d="M111.552 20.7396C111.397 20.4816 111.229 20.2365 111.036 20.0043C110.158 18.9464 108.971 18.2498 107.449 17.9144C107.256 17.8757 106.985 17.8112 106.636 17.7338C104.443 17.2565 103.334 16.7146 103.334 16.0954C103.334 15.76 103.489 15.502 103.785 15.3213C104.082 15.1407 104.508 15.0375 105.063 15.0375C105.785 15.0375 106.533 15.1794 107.294 15.4762C108.068 15.7729 108.83 16.1986 109.591 16.7662L112.003 10.9996C110.765 10.3288 109.539 9.82565 108.313 9.50313C107.088 9.16771 105.837 9 104.572 9C101.824 9 99.6055 9.74824 97.9026 11.2318C96.2126 12.7154 95.3612 14.6376 95.3612 17.0113C95.3612 18.5336 95.7998 19.8108 96.6771 20.8299C97.5543 21.8491 98.8057 22.5715 100.457 22.9715C100.741 23.036 101.128 23.1134 101.631 23.2295C103.192 23.552 103.966 24.0164 103.966 24.6357C103.966 24.984 103.811 25.2678 103.502 25.4742C103.192 25.6806 102.766 25.7838 102.224 25.7838C101.45 25.7838 100.625 25.6032 99.7345 25.2291C98.8444 24.8679 97.8381 24.2873 96.7029 23.4875L94.1743 29.654C95.6192 30.4797 97.0641 31.0989 98.509 31.5117C99.9538 31.9246 101.399 32.131 102.844 32.131C104.405 32.131 105.811 31.8859 107.049 31.4085L111.552 20.7396Z" fill="#0C3A5C"/>
<path id="Vector_2" d="M93.2583 19.4754C93.2454 19.2561 93.2325 18.9206 93.2067 18.4691H81.0285V23.6423H84.473C84.3827 24.2099 84.0988 24.6615 83.6215 24.984C83.1442 25.3065 82.5249 25.4613 81.7638 25.4613C80.4737 25.4613 79.4804 25.0356 78.7837 24.1712C78.0871 23.3069 77.7259 22.1071 77.7259 20.5461C77.7259 19.0368 78.0742 17.837 78.7708 16.9468C79.4675 16.0567 80.4092 15.6052 81.5832 15.6052C82.254 15.6052 82.8475 15.76 83.3764 16.0567C83.8924 16.3534 84.344 16.8178 84.7181 17.4242L91.7748 14.8053C90.6653 12.896 89.2204 11.4511 87.4659 10.4578C85.7243 9.49023 83.7118 9 81.4542 9C80.1641 9 78.9515 9.16771 77.8033 9.50313L70.8756 25.887C71.4174 26.9707 72.127 27.9511 73.0042 28.8284C74.1137 29.912 75.378 30.7377 76.8099 31.2924C78.2419 31.8472 79.79 32.131 81.4542 32.131C83.7118 32.131 85.7243 31.6278 87.5046 30.6345C89.2849 29.6411 90.7298 28.1963 91.8522 26.3127C92.3166 25.5129 92.6649 24.5841 92.91 23.5391C93.1551 22.4941 93.2712 21.346 93.2712 20.0817C93.2712 19.8882 93.2712 19.6947 93.2583 19.4754Z" fill="#0C3A5C"/>
<path id="Vector_3" d="M85.518 37.4714C84.989 37.4714 84.6278 37.8842 84.6278 38.4003V38.4132C84.6278 38.9292 85.0019 39.342 85.518 39.342C86.0469 39.342 86.4081 38.9292 86.4081 38.4132V38.4003C86.4081 37.8971 86.0469 37.4714 85.518 37.4714Z" fill="#E84910"/>
<path id="Vector_4" d="M100.031 38.6844H100.947L100.483 37.6265L100.031 38.6844Z" fill="#E84910"/>
<path id="Vector_5" d="M68.3858 37.4714C67.8568 37.4714 67.4956 37.8842 67.4956 38.4003V38.4132C67.4956 38.9292 67.8697 39.342 68.3858 39.342C68.9018 39.342 69.2759 38.9292 69.2759 38.4132V38.4003C69.2759 37.8971 68.9018 37.4714 68.3858 37.4714Z" fill="#E84910"/>
<path id="Vector_6" d="M90.1752 37.5102H89.6592V39.3034H90.1752C90.7299 39.3034 91.0912 38.9292 91.0912 38.4132V38.4003C91.0912 37.8972 90.7299 37.5102 90.1752 37.5102Z" fill="#E84910"/>
<path id="Vector_7" d="M71.8175 38.5932H71.0822V39.3156H71.8562C72.1787 39.3156 72.3593 39.1866 72.3593 38.9544V38.9415C72.3593 38.7222 72.1787 38.5932 71.8175 38.5932Z" fill="#E84910"/>
<path id="Vector_8" d="M72.2174 37.8456C72.2174 37.6263 72.0497 37.4973 71.753 37.4973H71.0822V38.1939H71.7143C72.011 38.1939 72.2174 38.0778 72.2174 37.8456Z" fill="#E84910"/>
<path id="Vector_9" d="M79.6482 37.9488C79.6482 37.665 79.4418 37.5102 79.1064 37.5102H78.4355V38.4003H79.1193C79.4289 38.4003 79.6482 38.2197 79.6482 37.9488Z" fill="#E84910"/>
<path id="Vector_10" d="M62 41.9998H120.892V34.7625H62V41.9998ZM66.2185 39.3552C65.9605 39.5745 65.5864 39.768 65.122 39.768C64.2963 39.768 63.7545 39.1746 63.7545 38.4134V38.4005C63.7545 37.6652 64.3221 37.0331 65.1091 37.0331C65.5735 37.0331 65.8444 37.1621 66.1282 37.3943L65.8315 37.7426C65.6251 37.5749 65.4316 37.4588 65.0962 37.4588C64.6059 37.4588 64.2447 37.8845 64.2447 38.3876V38.4005C64.2447 38.9424 64.6059 39.3423 65.1349 39.3423C65.38 39.3423 65.6122 39.2649 65.767 39.1488V38.6586H65.0962V38.2586H66.2185V39.3552ZM69.7662 38.4005C69.7662 39.1359 69.1986 39.768 68.3859 39.768C67.5731 39.768 67.0055 39.1488 67.0055 38.4134V38.4005C67.0055 37.6652 67.5731 37.0331 68.3859 37.0331C69.1986 37.046 69.7662 37.6523 69.7662 38.4005ZM72.8237 39.0069C72.8237 39.4713 72.4367 39.7293 71.8432 39.7293H70.6177V37.0976H71.8045C72.1013 37.0976 72.3464 37.175 72.4883 37.3298C72.6044 37.4459 72.6689 37.5878 72.6689 37.7684V37.7813C72.6689 38.1038 72.4883 38.2715 72.2948 38.3747C72.6044 38.465 72.8237 38.6328 72.8237 39.0069ZM74.1396 39.7293H73.6751V37.0976H74.1396V39.7293ZM77.1067 39.7293H75.1329V37.0976H77.0938V37.5104H75.5973V38.1941H76.9132V38.607H75.5973V39.3165H77.1067V39.7293ZM79.6482 39.7293L79.0031 38.8134H78.4226V39.7293H77.9582V37.0976H79.1321C79.4676 37.0976 79.7256 37.2008 79.8933 37.3556C80.0352 37.4975 80.1126 37.691 80.1126 37.9232V37.9361C80.1126 38.3747 79.8546 38.6328 79.4934 38.736L80.2029 39.7293H79.6482ZM83.2862 39.7293H82.8991L81.4414 37.8587V39.7293H80.9898V37.0976H81.4156L82.8217 38.9166V37.0976H83.2733V39.7293H83.2862ZM86.8984 38.4005C86.8984 39.1359 86.3307 39.768 85.518 39.768C84.7052 39.768 84.1376 39.1488 84.1376 38.4134V38.4005C84.1376 37.6652 84.7052 37.0331 85.518 37.0331C86.3307 37.046 86.8984 37.6523 86.8984 38.4005ZM91.5813 38.4005C91.5813 39.1359 91.0137 39.7164 90.1751 39.7164H89.1947V37.0847H90.1751C91.0008 37.0847 91.5813 37.6523 91.5813 38.4005ZM94.4066 39.7293H92.4328V37.0976H94.3808V37.5104H92.8843V38.1941H94.2002V38.607H92.8843V39.3165H94.3937V39.7293H94.4066ZM98.5606 38.9811C98.5606 39.4713 98.1736 39.768 97.6189 39.768C97.2189 39.768 96.8319 39.6261 96.5223 39.3423L96.8061 39.0069C97.0641 39.2262 97.3092 39.3552 97.6318 39.3552C97.9156 39.3552 98.0962 39.2133 98.0962 39.0198V39.0069C98.0962 38.8134 97.993 38.7231 97.5028 38.607C96.948 38.465 96.6255 38.3102 96.6255 37.82V37.8071C96.6255 37.3556 96.9996 37.046 97.5285 37.046C97.9156 37.046 98.2123 37.1621 98.4832 37.3814L98.2381 37.7297C98.0059 37.5491 97.7608 37.4588 97.5285 37.4588C97.2576 37.4588 97.1028 37.6007 97.1028 37.7684V37.7813C97.1028 37.9877 97.2189 38.078 97.735 38.1941C98.2639 38.336 98.5606 38.5295 98.5606 38.9811ZM101.373 39.7293L101.102 39.0972H99.8507L99.5798 39.7293H99.1024L100.264 37.0718H100.689L101.85 39.7293H101.373ZM104.921 39.7293H104.534L103.076 37.8587V39.7293H102.624V37.0976H103.05L104.456 38.9166V37.0976H104.908V39.7293H104.921ZM107.849 37.5233H107.011V39.7293H106.546V37.5233H105.708V37.0976H107.849V37.5233ZM109.126 39.7293H108.662V37.0976H109.126V39.7293ZM112.158 39.7293L111.887 39.0972H110.636L110.365 39.7293H109.887L111.048 37.0718H111.474L112.635 39.7293H112.158ZM115.59 39.3552C115.332 39.5745 114.957 39.768 114.493 39.768C113.667 39.768 113.126 39.1746 113.126 38.4134V38.4005C113.126 37.6652 113.693 37.0331 114.48 37.0331C114.945 37.0331 115.215 37.1621 115.486 37.3943L115.19 37.7426C114.983 37.5749 114.79 37.4588 114.454 37.4588C113.964 37.4588 113.603 37.8845 113.603 38.3876V38.4005C113.603 38.9424 113.964 39.3423 114.493 39.3423C114.738 39.3423 114.97 39.2649 115.125 39.1488V38.6586H114.454V38.2586H115.577V39.3552H115.59ZM119.124 38.4005C119.124 39.1359 118.557 39.768 117.744 39.768C116.931 39.768 116.364 39.1488 116.364 38.4134V38.4005C116.364 37.6652 116.931 37.0331 117.744 37.0331C118.57 37.046 119.124 37.6523 119.124 38.4005Z" fill="#E84910"/>
<path id="Vector_11" d="M110.816 38.6844H111.732L111.268 37.6265L110.816 38.6844Z" fill="#E84910"/>
<path id="Vector_12" d="M117.744 37.4714C117.215 37.4714 116.854 37.8842 116.854 38.4003V38.4132C116.854 38.9292 117.228 39.342 117.744 39.342C118.273 39.342 118.634 38.9292 118.634 38.4132V38.4003C118.647 37.8971 118.273 37.4714 117.744 37.4714Z" fill="#E84910"/>
</g>
</g>
</svg>
